<?xml version="1.0" encoding="UTF-8"?>
<svg version="1.1" xmlns="http://www.w3.org/2000/svg" width="600" height="600">
<path d="M0 0 C0.98701 -0.00233999 0.98701 -0.00233999 1.99395961 -0.00472724 C4.21545235 -0.00873954 6.43687763 -0.00554656 8.65837097 -0.00241089 C10.24493958 -0.00376497 11.83150787 -0.00554494 13.41807556 -0.00772095 C17.74307209 -0.01229852 22.06804488 -0.01050333 26.39304185 -0.00734186 C30.92115739 -0.00481508 35.44927086 -0.00715714 39.97738647 -0.00872803 C47.59484726 -0.01055084 55.21229837 -0.00814265 62.82975769 -0.00338745 C71.6153796 0.00203393 80.40097823 0.00030849 89.18659955 -0.00521386 C96.73494217 -0.00976752 104.2832778 -0.01038389 111.83162135 -0.00777519 C116.33683603 -0.00622202 120.84203983 -0.00599178 125.3472538 -0.00931168 C129.59483031 -0.01222239 133.84237722 -0.01015645 138.08995056 -0.00441742 C139.64102822 -0.00310594 141.19210842 -0.00345618 142.74318504 -0.00568008 C166.44541328 -0.03650204 166.44541328 -0.03650204 170.77238464 2.12698364 C172.554707 2.41660873 174.34408263 2.66334693 176.13566589 2.88870239 C204.89158067 6.69148429 231.50230287 14.71798862 256.77238464 29.12698364 C258.21871277 29.92942505 258.21871277 29.92942505 259.69425964 30.74807739 C269.7426474 36.50561634 278.35664583 44.2349966 286.77238464 52.12698364 C287.30911804 52.62440063 287.84585144 53.12181763 288.39884949 53.63430786 C311.14698692 74.86633108 325.52584818 103.05246197 332.77238464 133.12698364 C333.83038269 133.15614868 334.88838074 133.18531372 335.97843933 133.21536255 C339.96066924 133.33264153 343.94078865 133.48706574 347.92131042 133.65188599 C349.63352314 133.71777741 351.34613865 133.77402441 353.05900574 133.81985474 C365.74074076 134.16821333 376.0748109 135.57520757 385.77238464 144.62698364 C396.91116262 157.03337073 397.33268476 169.23624985 396.77238464 185.12698364 C394.89518738 185.69851685 394.89518738 185.69851685 392.77238464 186.12698364 C390.80754089 184.98245239 390.80754089 184.98245239 388.83488464 183.31448364 C381.50612787 177.47311293 374.06467299 177.03443623 364.87004089 176.81057739 C363.90753418 176.78260071 363.90753418 176.78260071 362.92558289 176.75405884 C360.56213715 176.68651584 358.19849779 176.62588961 355.83488464 176.56448364 C347.88394714 176.34792114 347.88394714 176.34792114 339.77238464 176.12698364 C339.77238464 187.67698364 339.77238464 199.22698364 339.77238464 211.12698364 C348.53730924 210.96980077 348.53730924 210.96980077 357.30119324 210.76663208 C368.25125445 210.66825448 377.37425455 213.08749313 385.51457214 220.77151489 C394.5539536 230.29584171 396.96692068 240.7655847 396.83488464 253.50198364 C396.83037292 254.33342896 396.82586121 255.16487427 396.82121277 256.02151489 C396.80951629 258.05670261 396.79158399 260.09185287 396.77238464 262.12698364 C395.78238464 262.45698364 394.79238464 262.78698364 393.77238464 263.12698364 C390.99504089 261.50979614 390.99504089 261.50979614 387.83488464 259.25198364 C381.9260216 255.04914921 378.50762415 254.04060834 371.31144714 253.81057739 C370.03398621 253.76868286 368.75652527 253.72678833 367.44035339 253.68362427 C366.77439148 253.66404663 366.10842957 253.64446899 365.42228699 253.6242981 C363.43857306 253.56570032 361.45508098 253.49974019 359.47160339 253.43362427 C350.90054579 253.16390567 342.34714453 253.07450551 333.77238464 253.12698364 C332.00223381 258.26042107 330.42763706 263.38151557 329.02238464 268.62698364 C324.4635664 284.67818399 317.33484483 299.12608137 307.54972839 312.65823364 C306.38235112 314.27973351 305.24797198 315.92560727 304.15129089 317.59573364 C299.73254114 324.13036579 294.56284764 329.6537467 289.02238464 335.25198364 C288.27682312 336.01132202 287.5312616 336.7706604 286.7631073 337.55300903 C286.04945007 338.26062378 285.33579285 338.96823853 284.60050964 339.69729614 C283.96016785 340.33425415 283.31982605 340.97121216 282.66007996 341.62747192 C280.77238464 343.12698364 280.77238464 343.12698364 278.59562683 343.65383911 C277.99395691 343.80997681 277.39228699 343.9661145 276.77238464 344.12698364 C276.44238464 345.11698364 276.11238464 346.10698364 275.77238464 347.12698364 C268.77317223 353.10237509 259.72639228 357.36642833 251.77018738 361.96731567 C250.49124021 362.70970832 249.21681593 363.4599828 247.94841003 364.22024536 C243.93063895 366.59927025 239.83988416 368.42107323 235.45988464 370.00198364 C234.42674133 370.37879272 234.42674133 370.37879272 233.37272644 370.76321411 C231.91330166 371.29143692 230.45241102 371.81562547 228.99015808 372.33596802 C227.53010972 372.85672503 226.07233599 373.38391133 224.61711121 373.91799927 C213.33074057 378.0510364 202.11169699 380.68638074 190.26945496 382.69338989 C187.31252091 383.20683483 184.37111321 383.78360472 181.43009949 384.38088989 C175.03945311 385.56242102 168.77849322 386.37814047 162.2928009 386.70191956 C161.12356329 386.76303615 161.12356329 386.76303615 159.93070471 386.82538742 C151.99670506 387.21126501 144.07485727 387.26109957 136.13322449 387.24050903 C134.56408693 387.24022586 132.99494925 387.24038743 131.42581177 387.24095154 C127.23071843 387.24123443 123.03565463 387.23542123 118.84056807 387.22837758 C114.43239466 387.22205812 110.02422033 387.22153353 105.61604309 387.22035217 C97.29742541 387.21726389 88.97882112 387.20908479 80.6602093 387.19900268 C71.1775074 387.18776311 61.6948048 387.18231147 52.21209788 387.17730725 C32.73218592 387.16689963 13.25228637 387.14934948 -6.22761536 387.12698364 C-7.34480286 382.41604614 -7.34480286 382.41604614 -6.29011536 379.81448364 C-5.76417786 378.97917114 -5.76417786 378.97917114 -5.22761536 378.12698364 C-4.56761536 378.12698364 -3.90761536 378.12698364 -3.22761536 378.12698364 C-2.96980286 377.46440552 -2.71199036 376.80182739 -2.44636536 376.11917114 C-1.52922988 373.86748597 -0.57358227 371.66052516 0.42863464 369.44729614 C1.04338681 368.04893285 1.65796582 366.65049343 2.27238464 365.25198364 C2.58047058 364.58940552 2.88855652 363.92682739 3.20597839 363.24417114 C9.90828872 347.71091974 8.19750134 329.04232696 8.39738464 312.50198364 C8.4356878 309.97332619 8.474746 307.44468006 8.51457214 304.91604614 C8.77211836 287.65211462 8.81951377 270.39243587 8.77238464 253.12698364 C7.98444519 253.13519135 7.19650574 253.14339905 6.38468933 253.15185547 C4.21249232 253.17448252 2.0402916 253.19675669 -0.13191223 253.21871948 C-2.40866436 253.24318379 -4.68535528 253.2735219 -6.96199036 253.30715942 C-16.95113913 253.35729926 -24.87029327 251.88608877 -33.22761536 246.12698364 C-35.54011536 243.56448364 -35.54011536 243.56448364 -37.22761536 241.12698364 C-37.86699036 240.57010864 -38.50636536 240.01323364 -39.16511536 239.43948364 C-46.32021208 231.41710247 -47.38969756 222.58677051 -47.29011536 212.31448364 C-47.28560364 211.4308313 -47.28109192 210.54717896 -47.27644348 209.63674927 C-47.26471402 207.46679805 -47.24678031 205.29688193 -47.22761536 203.12698364 C-45.3618927 202.55545044 -45.3618927 202.55545044 -43.22761536 202.12698364 C-41.07917786 203.27151489 -41.07917786 203.27151489 -38.85261536 204.93948364 C-32.67487495 209.53458737 -27.03850836 210.4298829 -19.54792786 210.54104614 C-18.73516388 210.56041229 -17.9223999 210.57977844 -17.08500671 210.59973145 C-14.50764724 210.65916247 -11.93024221 210.70576545 -9.35261536 210.75198364 C-7.59738833 210.79019707 -5.84217939 210.82925074 -4.08699036 210.86917114 C0.19937 210.96640427 4.48555484 211.04626039 8.77238464 211.12698364 C8.44238464 199.90698364 8.11238464 188.68698364 7.77238464 177.12698364 C4.71988464 177.16823364 1.66738464 177.20948364 -1.47761536 177.25198364 C-15.75133338 177.27389353 -25.40380916 176.29589798 -36.22761536 166.27542114 C-42.32751409 159.88630307 -47.38552722 150.65585076 -47.32527161 141.67776489 C-47.32204895 140.8302063 -47.31882629 139.98264771 -47.31550598 139.10940552 C-47.30712708 138.2283313 -47.29874817 137.34725708 -47.29011536 136.43948364 C-47.28560364 135.54680786 -47.28109192 134.65413208 -47.27644348 133.73440552 C-47.26466518 131.53186378 -47.248217 129.32945765 -47.22761536 127.12698364 C-42.80053202 125.87085619 -42.80053202 125.87085619 -40.23542786 127.01760864 C-39.30343567 127.69049927 -39.30343567 127.69049927 -38.35261536 128.37698364 C-31.93676245 132.94056102 -26.63185729 134.58433346 -18.88777161 134.41995239 C-18.12081467 134.41570755 -17.35385773 134.41146271 -16.56365967 134.40708923 C-14.13877204 134.39043434 -11.71474738 134.35280917 -9.29011536 134.31448364 C-7.63583057 134.29941966 -5.98153263 134.28573426 -4.32722473 134.27346802 C-0.29369433 134.24057441 3.73919938 134.18888613 7.77238464 134.12698364 C8.71559231 130.1402287 8.90460494 126.41964792 8.91764832 122.3274231 C8.92100693 121.66310272 8.92436554 120.99878235 8.92782593 120.31433105 C8.93730194 118.12295642 8.93927855 115.93165874 8.94035339 113.74026489 C8.94357251 112.19869456 8.94693706 110.65712452 8.95043945 109.11555481 C8.9564254 105.87839046 8.95828032 102.64125275 8.95768738 99.40408325 C8.95758675 95.30866224 8.97113683 91.21341852 8.98845959 87.11803913 C8.99973696 83.92701987 9.00160171 80.73604101 9.00107765 77.54500389 C9.00223819 76.03873278 9.0065479 74.53245992 9.01441002 73.02620888 C9.12189315 50.27218815 6.91985154 27.74953512 -6.09089661 8.38088989 C-7.41651474 5.75243056 -7.5218127 4.03405234 -7.22761536 1.12698364 C-5.39345033 -0.70718138 -2.45890754 0.000782 0 0 Z M70.77238464 23.12698364 C70.67468263 24.55411984 70.64606769 25.98605794 70.645401 27.41653442 C70.64258118 28.34202087 70.63976135 29.26750732 70.63685608 30.22103882 C70.63888031 31.24445374 70.64090454 32.26786865 70.64299011 33.32229614 C70.64123779 34.39372864 70.63948547 35.46516113 70.63768005 36.56906128 C70.63325911 40.13005161 70.63620038 43.69099276 70.63957214 47.25198364 C70.63889917 49.71438608 70.63792921 52.17678846 70.63667297 54.63919067 C70.63519567 59.80765412 70.6373516 64.97610032 70.64201355 70.14456177 C70.64771085 76.78639092 70.64443202 83.42817966 70.63844109 90.07000732 C70.63483635 95.15701606 70.63597366 100.24401515 70.63856888 105.33102417 C70.63923839 107.78077194 70.63840889 110.23052057 70.63608932 112.68026733 C70.63356423 116.09742574 70.63740139 119.51451771 70.64299011 122.93167114 C70.64096588 123.95508606 70.63894165 124.97850098 70.63685608 126.03292847 C70.6396759 126.95841492 70.64249573 127.88390137 70.645401 128.83743286 C70.64596654 130.05086868 70.64596654 130.05086868 70.6465435 131.28881836 C70.57134627 133.14499858 70.57134627 133.14499858 71.77238464 134.12698364 C74.23869736 134.22469059 76.67697462 134.25694462 79.14373779 134.24723816 C79.92455072 134.24809258 80.70536364 134.24894701 81.50983757 134.24982733 C84.14628555 134.2514845 86.78267097 134.2459569 89.41911316 134.24050903 C91.30101012 134.24022719 93.18290718 134.24038485 95.06480408 134.24095154 C100.19062399 134.24123961 105.31642073 134.23534131 110.44223523 134.22837758 C115.79275728 134.22214566 121.14327981 134.22154037 126.49380493 134.22035217 C136.63336822 134.21723838 146.77292078 134.20902434 156.91247934 134.19900268 C168.45278938 134.18784304 179.99309992 134.18233147 191.53341401 134.17730725 C215.27974351 134.16684177 239.02606348 134.1492414 262.77238464 134.12698364 C262.62236553 132.36954787 262.46956615 130.61234929 262.31559753 128.85525513 C262.23080643 127.87669052 262.14601532 126.89812592 262.05865479 125.88990784 C259.05017921 96.85373274 241.18748746 67.66266972 219.15690613 49.26712036 C213.71317869 44.85616529 208.3837284 40.91509697 201.92082214 38.09182739 C199.77238464 37.12698364 199.77238464 37.12698364 197.33097839 35.62698364 C174.92441694 22.49092319 145.02052912 23.81241061 120.03910828 23.5843811 C114.36940048 23.53170727 108.69985023 23.46723964 103.03034592 23.39616585 C101.06331197 23.37345965 99.09620495 23.35739588 97.12910461 23.34144592 C95.34982071 23.32121117 95.34982071 23.32121117 93.53459167 23.30056763 C91.96936264 23.28629982 91.96936264 23.28629982 90.37251282 23.27174377 C87.77238464 23.12698364 87.77238464 23.12698364 84.77238464 22.12698364 C82.5656805 22.03249001 80.35610559 21.99708626 78.14738464 22.00198364 C76.39554871 21.99811646 76.39554871 21.99811646 74.60832214 21.99417114 C71.87152518 21.80342521 71.87152518 21.80342521 70.77238464 23.12698364 Z M70.77238464 177.12698364 C68.73707839 194.72548826 68.73707839 194.72548826 71.77238464 211.12698364 C136.45238464 211.12698364 201.13238464 211.12698364 267.77238464 211.12698364 C267.77238464 199.90698364 267.77238464 188.68698364 267.77238464 177.12698364 C202.76238464 177.12698364 137.75238464 177.12698364 70.77238464 177.12698364 Z M70.77238464 253.12698364 C70.73113464 271.23573364 70.68988464 289.34448364 70.64738464 308.00198364 C70.62917664 313.72654907 70.61096863 319.4511145 70.59220886 325.34915161 C70.58552131 330.46647524 70.58552131 330.46647524 70.58149719 335.58380127 C70.57841964 337.86872129 70.57137248 340.153638 70.56123352 342.4385376 C70.54666614 345.89317496 70.54457022 349.34761329 70.54533386 352.80227661 C70.53813765 353.82560026 70.53094143 354.84892391 70.52352715 355.90325737 C70.52628214 356.82963068 70.52903713 357.75600399 70.53187561 358.71044922 C70.53003202 359.51978346 70.52818844 360.3291177 70.52628899 361.16297722 C70.59772431 363.3614601 70.59772431 363.3614601 72.77238464 365.12698364 C74.76415426 365.42540047 74.76415426 365.42540047 77.07243347 365.36990356 C78.41202873 365.37451851 78.41202873 365.37451851 79.77868652 365.37922668 C80.75242722 365.37204117 81.72616791 365.36485565 82.72941589 365.35745239 C84.24857857 365.35676506 84.24857857 365.35676506 85.7984314 365.35606384 C87.9581366 365.35303399 90.11783948 365.34512602 92.2775116 365.33279419 C95.50570382 365.31492201 98.73360203 365.31228202 101.96183777 365.31253052 C112.24458668 365.29521166 122.51096059 365.13821954 132.78410339 364.67776489 C133.68006729 364.63926926 134.57603119 364.60077362 135.49914551 364.56111145 C139.45789843 364.73142605 139.45789843 364.73142605 142.77238464 363.12698364 C144.4689148 362.86404028 146.1744744 362.65890933 147.88175964 362.47854614 C148.93991882 362.36228882 149.998078 362.24603149 151.08830261 362.12625122 C152.78817322 361.94098877 152.78817322 361.94098877 154.52238464 361.75198364 C187.5370407 357.89171596 216.44800549 344.29706088 237.47160339 317.81057739 C250.66023244 300.44097842 262.77238464 275.23648501 262.77238464 253.12698364 C199.41238464 253.12698364 136.05238464 253.12698364 70.77238464 253.12698364 Z " fill="#010101" transform="translate(145.2276153564453,106.87301635742188)"/>
<path d="M0 0 C0.98701 -0.00233999 0.98701 -0.00233999 1.99395961 -0.00472724 C4.21545235 -0.00873954 6.43687763 -0.00554656 8.65837097 -0.00241089 C10.24493958 -0.00376497 11.83150787 -0.00554494 13.41807556 -0.00772095 C17.74307209 -0.01229852 22.06804488 -0.01050333 26.39304185 -0.00734186 C30.92115739 -0.00481508 35.44927086 -0.00715714 39.97738647 -0.00872803 C47.59484726 -0.01055084 55.21229837 -0.00814265 62.82975769 -0.00338745 C71.6153796 0.00203393 80.40097823 0.00030849 89.18659955 -0.00521386 C96.73494217 -0.00976752 104.2832778 -0.01038389 111.83162135 -0.00777519 C116.33683603 -0.00622202 120.84203983 -0.00599178 125.3472538 -0.00931168 C129.59483031 -0.01222239 133.84237722 -0.01015645 138.08995056 -0.00441742 C139.64102822 -0.00310594 141.19210842 -0.00345618 142.74318504 -0.00568008 C166.44541328 -0.03650204 166.44541328 -0.03650204 170.77238464 2.12698364 C172.554707 2.41660873 174.34408263 2.66334693 176.13566589 2.88870239 C204.89158067 6.69148429 231.50230287 14.71798862 256.77238464 29.12698364 C258.21871277 29.92942505 258.21871277 29.92942505 259.69425964 30.74807739 C269.7426474 36.50561634 278.35664583 44.2349966 286.77238464 52.12698364 C287.30911804 52.62440063 287.84585144 53.12181763 288.39884949 53.63430786 C311.14698692 74.86633108 325.52584818 103.05246197 332.77238464 133.12698364 C333.83038269 133.15614868 334.88838074 133.18531372 335.97843933 133.21536255 C339.96066924 133.33264153 343.94078865 133.48706574 347.92131042 133.65188599 C349.63352314 133.71777741 351.34613865 133.77402441 353.05900574 133.81985474 C365.74074076 134.16821333 376.0748109 135.57520757 385.77238464 144.62698364 C396.91116262 157.03337073 397.33268476 169.23624985 396.77238464 185.12698364 C394.89518738 185.69851685 394.89518738 185.69851685 392.77238464 186.12698364 C390.80754089 184.98245239 390.80754089 184.98245239 388.83488464 183.31448364 C381.50612787 177.47311293 374.06467299 177.03443623 364.87004089 176.81057739 C363.90753418 176.78260071 363.90753418 176.78260071 362.92558289 176.75405884 C360.56213715 176.68651584 358.19849779 176.62588961 355.83488464 176.56448364 C347.88394714 176.34792114 347.88394714 176.34792114 339.77238464 176.12698364 C339.77238464 187.67698364 339.77238464 199.22698364 339.77238464 211.12698364 C348.53730924 210.96980077 348.53730924 210.96980077 357.30119324 210.76663208 C368.25125445 210.66825448 377.37425455 213.08749313 385.51457214 220.77151489 C394.5539536 230.29584171 396.96692068 240.7655847 396.83488464 253.50198364 C396.83037292 254.33342896 396.82586121 255.16487427 396.82121277 256.02151489 C396.80951629 258.05670261 396.79158399 260.09185287 396.77238464 262.12698364 C395.78238464 262.45698364 394.79238464 262.78698364 393.77238464 263.12698364 C390.99504089 261.50979614 390.99504089 261.50979614 387.83488464 259.25198364 C381.9260216 255.04914921 378.50762415 254.04060834 371.31144714 253.81057739 C370.03398621 253.76868286 368.75652527 253.72678833 367.44035339 253.68362427 C366.77439148 253.66404663 366.10842957 253.64446899 365.42228699 253.6242981 C363.43857306 253.56570032 361.45508098 253.49974019 359.47160339 253.43362427 C350.90054579 253.16390567 342.34714453 253.07450551 333.77238464 253.12698364 C332.00223381 258.26042107 330.42763706 263.38151557 329.02238464 268.62698364 C324.4635664 284.67818399 317.33484483 299.12608137 307.54972839 312.65823364 C306.38235112 314.27973351 305.24797198 315.92560727 304.15129089 317.59573364 C299.73254114 324.13036579 294.56284764 329.6537467 289.02238464 335.25198364 C288.27682312 336.01132202 287.5312616 336.7706604 286.7631073 337.55300903 C286.04945007 338.26062378 285.33579285 338.96823853 284.60050964 339.69729614 C283.96016785 340.33425415 283.31982605 340.97121216 282.66007996 341.62747192 C280.77238464 343.12698364 280.77238464 343.12698364 278.59562683 343.65383911 C277.99395691 343.80997681 277.39228699 343.9661145 276.77238464 344.12698364 C276.44238464 345.11698364 276.11238464 346.10698364 275.77238464 347.12698364 C268.77317223 353.10237509 259.72639228 357.36642833 251.77018738 361.96731567 C250.49124021 362.70970832 249.21681593 363.4599828 247.94841003 364.22024536 C243.93063895 366.59927025 239.83988416 368.42107323 235.45988464 370.00198364 C234.42674133 370.37879272 234.42674133 370.37879272 233.37272644 370.76321411 C231.91330166 371.29143692 230.45241102 371.81562547 228.99015808 372.33596802 C227.53010972 372.85672503 226.07233599 373.38391133 224.61711121 373.91799927 C213.33074057 378.0510364 202.11169699 380.68638074 190.26945496 382.69338989 C187.31252091 383.20683483 184.37111321 383.78360472 181.43009949 384.38088989 C175.03945311 385.56242102 168.77849322 386.37814047 162.2928009 386.70191956 C161.12356329 386.76303615 161.12356329 386.76303615 159.93070471 386.82538742 C151.99670506 387.21126501 144.07485727 387.26109957 136.13322449 387.24050903 C134.56408693 387.24022586 132.99494925 387.24038743 131.42581177 387.24095154 C127.23071843 387.24123443 123.03565463 387.23542123 118.84056807 387.22837758 C114.43239466 387.22205812 110.02422033 387.22153353 105.61604309 387.22035217 C97.29742541 387.21726389 88.97882112 387.20908479 80.6602093 387.19900268 C71.1775074 387.18776311 61.6948048 387.18231147 52.21209788 387.17730725 C32.73218592 387.16689963 13.25228637 387.14934948 -6.22761536 387.12698364 C-6.55761536 386.46698364 -6.88761536 385.80698364 -7.22761536 385.12698364 C-6.41097884 385.12551708 -5.59434233 385.12405052 -4.75295925 385.12253952 C15.26980784 385.08522028 35.29240905 385.0258797 55.31504154 384.9430809 C64.99849731 384.90354901 74.68187486 384.87102707 84.36540222 384.85598755 C92.82177109 384.84283506 101.27796594 384.81553287 109.73423666 384.77237058 C114.19708208 384.75005564 118.65971539 384.73405443 123.12262154 384.73509979 C183.70619652 384.73409789 245.00128791 374.37367514 289.77238464 330.12698364 C311.04474643 308.57609666 324.36087185 280.48123869 330.77238464 251.12698364 C337.44339356 251.02505943 344.11419957 250.95529923 350.78581238 250.90725708 C353.05249028 250.88721658 355.31911696 250.85997654 357.58561707 250.82522583 C360.8550332 250.77637496 364.12376221 250.75393852 367.39347839 250.73635864 C368.39696823 250.7157135 369.40045807 250.69506836 370.43435669 250.67379761 C380.05897999 250.67076962 386.75368866 253.64818735 393.77238464 260.12698364 C393.83139177 255.45886451 393.82807869 250.79515766 393.77238464 246.12698364 C393.76851746 245.37159302 393.76465027 244.61620239 393.76066589 243.83792114 C393.22370539 235.13545776 387.99441258 226.27946382 381.62004089 220.52151489 C372.18357012 213.39927373 361.70601355 212.80460478 350.27238464 212.50198364 C346.14738464 212.37823364 342.02238464 212.25448364 337.77238464 212.12698364 C337.77238464 199.58698364 337.77238464 187.04698364 337.77238464 174.12698364 C343.83613464 174.06510864 349.89988464 174.00323364 356.14738464 173.93948364 C358.04021179 173.91217163 359.93303894 173.88485962 361.88322449 173.85671997 C382.54973333 173.67858816 382.54973333 173.67858816 390.89738464 180.81448364 C391.64246277 181.43710083 392.38754089 182.05971802 393.15519714 182.70120239 C393.68886902 183.17171021 394.22254089 183.64221802 394.77238464 184.12698364 C394.59566707 168.76862013 393.39345946 156.86692675 382.25285339 145.25979614 C375.29221165 139.27474041 367.83533253 137.01137208 358.82316589 136.81057739 C357.6642408 136.77940575 357.6642408 136.77940575 356.48190308 136.74760437 C354.01631985 136.68227326 351.55063104 136.62330049 349.08488464 136.56448364 C347.41234773 136.52128278 345.73982145 136.47766798 344.06730652 136.43362427 C339.96910715 136.32660874 335.87080168 136.22529507 331.77238464 136.12698364 C331.29637794 134.87564254 330.82211332 133.6236387 330.34855652 132.37136841 C329.95210938 131.32566429 329.95210938 131.32566429 329.5476532 130.25883484 C328.82043763 128.25912085 328.16970984 126.25313945 327.55363464 124.21682739 C322.26384699 106.90289732 314.77408499 89.60649422 303.77238464 75.12698364 C303.12785339 74.27491333 302.48332214 73.42284302 301.81925964 72.54495239 C281.21081649 46.13531363 255.65368068 29.30013748 224.77238464 17.12698364 C223.03601746 16.41735474 223.03601746 16.41735474 221.26457214 15.69338989 C207.47998805 10.36224351 192.66644398 7.87928548 178.14738464 5.37698364 C177.48706238 5.26145142 176.82674011 5.14591919 176.14640808 5.02688599 C164.31264576 3.09943928 152.38374738 2.98343571 140.42546082 3.01345825 C138.82750449 3.01374102 137.22954804 3.01358064 135.6315918 3.01301575 C131.33496635 3.01273128 127.03836937 3.01857093 122.74175048 3.0255897 C118.23611966 3.03188199 113.73048805 3.03243166 109.22485352 3.03361511 C100.71128169 3.03671122 92.19772285 3.04490121 83.68415672 3.0549646 C73.98392067 3.06617943 64.28368397 3.07164967 54.58344305 3.07666004 C34.64641636 3.08708543 14.70940132 3.10465125 -5.22761536 3.12698364 C-4.67359039 4.0826825 -4.11956543 5.03838135 -3.54875183 6.02304077 C-2.81705666 7.2923094 -2.08550713 8.56166199 -1.3540802 9.83108521 C-0.98947189 10.4591507 -0.62486359 11.08721619 -0.24920654 11.73431396 C2.38114032 16.30887899 4.52526003 20.84585794 6.14738464 25.87698364 C6.38868103 26.59523315 6.62997742 27.31348267 6.87858582 28.05349731 C11.90392999 43.361017 11.91981138 58.84874172 11.87004089 74.79885864 C11.86817175 76.57532715 11.86675019 78.35179617 11.86575317 80.12826538 C11.86196709 84.76416491 11.85217099 89.40003223 11.84104919 94.03591919 C11.83075023 98.78241541 11.82623752 103.52891693 11.82121277 108.27542114 C11.81054454 117.55928932 11.7935161 126.84313379 11.77238464 136.12698364 C5.97412266 136.25143452 0.17665368 136.34172194 -5.62263489 136.40164185 C-7.59152282 136.42664411 -9.56031928 136.46065764 -11.52888489 136.50418091 C-32.52465506 136.95644661 -32.52465506 136.95644661 -40.22761536 131.12698364 C-40.96802063 130.61820679 -41.7084259 130.10942993 -42.4712677 129.5852356 C-43.05086243 129.10401245 -43.63045715 128.62278931 -44.22761536 128.12698364 C-44.22761536 127.46698364 -44.22761536 126.80698364 -44.22761536 126.12698364 C-41.98150755 127.22460803 -39.80370815 128.37155625 -37.63703918 129.62161255 C-27.93083608 134.79500544 -19.67927977 134.85338538 -8.91511536 134.50198364 C-7.28821235 134.47180473 -5.66125455 134.44444309 -4.03425598 134.41995239 C-0.09732421 134.35467604 3.83690322 134.25161521 7.77238464 134.12698364 C8.71559231 130.1402287 8.90460494 126.41964792 8.91764832 122.3274231 C8.92100693 121.66310272 8.92436554 120.99878235 8.92782593 120.31433105 C8.93730194 118.12295642 8.93927855 115.93165874 8.94035339 113.74026489 C8.94357251 112.19869456 8.94693706 110.65712452 8.95043945 109.11555481 C8.9564254 105.87839046 8.95828032 102.64125275 8.95768738 99.40408325 C8.95758675 95.30866224 8.97113683 91.21341852 8.98845959 87.11803913 C8.99973696 83.92701987 9.00160171 80.73604101 9.00107765 77.54500389 C9.00223819 76.03873278 9.0065479 74.53245992 9.01441002 73.02620888 C9.12189315 50.27218815 6.91985154 27.74953512 -6.09089661 8.38088989 C-7.41651474 5.75243056 -7.5218127 4.03405234 -7.22761536 1.12698364 C-5.39345033 -0.70718138 -2.45890754 0.000782 0 0 Z " fill="#F2F2F2" transform="translate(145.2276153564453,106.87301635742188)"/>
<path d="M0 0 C66.33 0 132.66 0 201 0 C201 12.87 201 25.74 201 39 C134.67 39 68.34 39 0 39 C0 26.13 0 13.26 0 0 Z M2 3 C-0.03530625 20.59850462 -0.03530625 20.59850462 3 37 C67.68 37 132.36 37 199 37 C199 25.78 199 14.56 199 3 C133.99 3 68.98 3 2 3 Z " fill="#CECECE" transform="translate(214,281)"/>
<path d="M0 0 C11.01375 -0.020625 22.0275 -0.04125 33.375 -0.0625 C36.81341309 -0.071604 40.25182617 -0.08070801 43.79443359 -0.09008789 C84.29724541 -0.15536738 84.29724541 -0.15536738 96.625 2.75 C97.40657471 2.9262793 98.18814941 3.10255859 98.9934082 3.28417969 C122.84067526 8.82364823 143.40619326 18.67239942 161 36 C161.78246094 36.75796875 162.56492187 37.5159375 163.37109375 38.296875 C180.00578607 55.49495262 188.82965557 79.27488867 194.3125 102.125 C194.48410645 102.83567627 194.65571289 103.54635254 194.83251953 104.27856445 C195.69211832 108.02664821 196 111.10318518 196 115 C131.32 115 66.64 115 0 115 C0 77.05 0 39.1 0 0 Z M1 2 C0.90229799 3.4271362 0.87368305 4.8590743 0.87301636 6.28955078 C0.87019653 7.21503723 0.86737671 8.14052368 0.86447144 9.09405518 C0.86649567 10.11747009 0.8685199 11.14088501 0.87060547 12.1953125 C0.86885315 13.266745 0.86710083 14.33817749 0.86529541 15.44207764 C0.86087447 19.00306797 0.86381574 22.56400911 0.8671875 26.125 C0.86651453 28.58740244 0.86554456 31.04980482 0.86428833 33.51220703 C0.86281103 38.68067048 0.86496695 43.84911668 0.86962891 49.01757812 C0.8753262 55.65940727 0.87204737 62.30119602 0.86605644 68.94302368 C0.8624517 74.03003242 0.86358901 79.1170315 0.86618423 84.20404053 C0.86685375 86.6537883 0.86602425 89.10353693 0.86370468 91.55328369 C0.86117958 94.9704421 0.86501674 98.38753407 0.87060547 101.8046875 C0.86858124 102.82810242 0.86655701 103.85151733 0.86447144 104.90594482 C0.86729126 105.83143127 0.87011108 106.75691772 0.87301636 107.71044922 C0.8735819 108.92388504 0.8735819 108.92388504 0.87415886 110.16183472 C0.79896163 112.01801494 0.79896163 112.01801494 2 113 C4.46631271 113.09770695 6.90458998 113.12996098 9.37135315 113.12025452 C10.15216608 113.12110894 10.932979 113.12196337 11.73745292 113.12284368 C14.3739009 113.12450086 17.01028632 113.11897326 19.64672852 113.11352539 C21.52862547 113.11324354 23.41052254 113.1134012 25.29241943 113.1139679 C30.41823935 113.11425597 35.54403608 113.10835767 40.66985059 113.10139394 C46.02037264 113.09516202 51.37089517 113.09455673 56.72142029 113.09336853 C66.86098358 113.09025474 77.00053614 113.0820407 87.1400947 113.07201904 C98.68040474 113.06085939 110.22071528 113.05534783 121.76102936 113.05032361 C145.50735886 113.03985813 169.25367883 113.02225776 193 113 C192.84998088 111.24256423 192.6971815 109.48536564 192.54321289 107.72827148 C192.45842178 106.74970688 192.37363068 105.77114227 192.28627014 104.76292419 C189.27779457 75.72674909 171.41510282 46.53568608 149.38452148 28.14013672 C143.94079404 23.72918164 138.61134375 19.78811332 132.1484375 16.96484375 C130 16 130 16 127.55859375 14.5 C105.1520323 1.36393955 75.24814447 2.68542696 50.26672363 2.45739746 C44.59701583 2.40472363 38.92746559 2.34025599 33.25796127 2.26918221 C31.29092732 2.24647601 29.32382031 2.23041224 27.35671997 2.21446228 C25.57743607 2.19422752 25.57743607 2.19422752 23.76220703 2.17358398 C22.196978 2.15931618 22.196978 2.15931618 20.60012817 2.14476013 C18 2 18 2 15 1 C12.79329586 0.90550637 10.58372095 0.87010261 8.375 0.875 C6.62316406 0.87113281 6.62316406 0.87113281 4.8359375 0.8671875 C2.09914054 0.67644156 2.09914054 0.67644156 1 2 Z " fill="#DDDDDD" transform="translate(215,128)"/>
<path d="M0 0 C64.68 0 129.36 0 196 0 C193.74471428 14.6593572 193.74471428 14.6593572 191.8984375 20.3046875 C191.29322266 22.15803711 191.29322266 22.15803711 190.67578125 24.04882812 C190.24383998 25.32477935 189.81021609 26.60016207 189.375 27.875 C189.15279785 28.53330811 188.9305957 29.19161621 188.70166016 29.86987305 C185.33281387 39.80157915 181.71239731 49.14687849 176 58 C175.6400293 58.56992676 175.28005859 59.13985352 174.90917969 59.72705078 C160.43240066 82.37580353 139.41243163 97.30131608 114.3125 106.3125 C113.67280273 106.54283936 113.03310547 106.77317871 112.37402344 107.01049805 C101.48085528 110.73028291 90.31011823 112.63742409 78.875 113.6875 C78.19753723 113.75103668 77.52007446 113.81457336 76.82208252 113.8800354 C51.35605767 116.17377963 25.49948427 115.174654 0 115 C0 77.05 0 39.1 0 0 Z M1 2 C0.95875 20.10875 0.9175 38.2175 0.875 56.875 C0.85679199 62.59956543 0.83858398 68.32413086 0.81982422 74.22216797 C0.81313666 79.33949159 0.81313666 79.33949159 0.80911255 84.45681763 C0.806035 86.74173765 0.79898784 89.02665436 0.78884888 91.31155396 C0.7742815 94.76619132 0.77218558 98.22062965 0.77294922 101.67529297 C0.765753 102.69861662 0.75855679 103.72194027 0.7511425 104.77627373 C0.7538975 105.70264704 0.75665249 106.62902035 0.75949097 107.58346558 C0.75764738 108.39279982 0.75580379 109.20213406 0.75390434 110.03599358 C0.82533966 112.23447646 0.82533966 112.23447646 3 114 C4.99176961 114.29841683 4.99176961 114.29841683 7.30004883 114.24291992 C8.63964409 114.24753487 8.63964409 114.24753487 10.00630188 114.25224304 C10.98004257 114.24505753 11.95378326 114.23787201 12.95703125 114.23046875 C14.47619392 114.22978142 14.47619392 114.22978142 16.02604675 114.2290802 C18.18575196 114.22605035 20.34545483 114.21814238 22.50512695 114.20581055 C25.73331918 114.18793837 28.96121739 114.18529838 32.18945312 114.18554688 C42.47220203 114.16822802 52.73857594 114.0112359 63.01171875 113.55078125 C63.90768265 113.51228561 64.80364655 113.47378998 65.72676086 113.43412781 C69.68551379 113.60444241 69.68551379 113.60444241 73 112 C74.69653016 111.73705663 76.40208976 111.53192569 78.109375 111.3515625 C79.16753418 111.23530518 80.22569336 111.11904785 81.31591797 110.99926758 C83.01578857 110.81400513 83.01578857 110.81400513 84.75 110.625 C117.76465605 106.76473231 146.67562084 93.17007724 167.69921875 66.68359375 C180.8878478 49.31399478 193 24.10950137 193 2 C129.64 2 66.28 2 1 2 Z " fill="#C2C2C2" transform="translate(215,358)"/>
<path d="M0 0 C50.16 0 100.32 0 152 0 C152 0.33 152 0.66 152 1 C77.75 1.495 77.75 1.495 2 2 C4.64 6.62 7.28 11.24 10 16 C11.26656219 18.96346212 12.39671466 21.71578394 13.375 24.75 C13.61629639 25.46824951 13.85759277 26.18649902 14.10620117 26.92651367 C19.13154535 42.23403336 19.14742673 57.72175807 19.09765625 73.671875 C19.0957871 75.4483435 19.09436555 77.22481253 19.09336853 79.00128174 C19.08958244 83.63718127 19.07978635 88.27304859 19.06866455 92.90893555 C19.05836559 97.65543177 19.05385287 102.40193328 19.04882812 107.1484375 C19.03815989 116.43230568 19.02113146 125.71615014 19 135 C13.20173802 135.12445087 7.40426903 135.21473829 1.60498047 135.2746582 C-0.36390747 135.29966047 -2.33270393 135.333674 -4.30126953 135.37719727 C-25.2970397 135.82946297 -25.2970397 135.82946297 -33 130 C-33.74040527 129.49122314 -34.48081055 128.98244629 -35.24365234 128.45825195 C-35.82324707 127.97702881 -36.4028418 127.49580566 -37 127 C-37 126.34 -37 125.68 -37 125 C-34.7538922 126.09762438 -32.57609279 127.24457261 -30.40942383 128.49462891 C-20.70322072 133.6680218 -12.45166441 133.72640173 -1.6875 133.375 C-0.060597 133.34482109 1.5663608 133.31745945 3.19335938 133.29296875 C7.13029114 133.2276924 11.06451858 133.12463157 15 133 C15.94320766 129.01324506 16.1322203 125.29266428 16.14526367 121.20043945 C16.14862228 120.53611908 16.1519809 119.87179871 16.15544128 119.18734741 C16.16491729 116.99597278 16.1668939 114.80467509 16.16796875 112.61328125 C16.17118787 111.07171092 16.17455242 109.53014088 16.17805481 107.98857117 C16.18404076 104.75140681 16.18589568 101.51426911 16.18530273 98.27709961 C16.18520211 94.18167859 16.19875219 90.08643487 16.21607494 85.99105549 C16.22735231 82.80003623 16.22921706 79.60905737 16.22869301 76.41802025 C16.22985355 74.91174914 16.23416325 73.40547628 16.24202538 71.89922523 C16.34950851 49.14520451 14.1474669 26.62255148 1.13671875 7.25390625 C0 5 0 5 0 0 Z " fill="#D0D0D0" transform="translate(138,108)"/>
<path d="M0 0 C0.33 0 0.66 0 1 0 C1.01417969 0.99257813 1.02835937 1.98515625 1.04296875 3.0078125 C1.43099908 16.39154247 4.01814267 29.2970768 14 39 C20.81013588 44.50277996 27.09707219 47.17956829 35.9296875 47.4140625 C37.21875 47.45273437 38.5078125 47.49140625 39.8359375 47.53125 C41.18228707 47.56269758 42.52864132 47.59394511 43.875 47.625 C45.24481514 47.66323041 46.61460755 47.70228501 47.984375 47.7421875 C51.32278263 47.83622715 54.66118814 47.92188057 58 48 C58.02322795 59.56183126 58.04096823 71.12365692 58.05181217 82.68550682 C58.05701819 88.05483198 58.0640742 93.4241411 58.07543945 98.79345703 C58.08634966 103.9805886 58.09229401 109.16770479 58.09487724 114.35484695 C58.09671688 116.32825589 58.10030911 118.30166403 58.10573006 120.27506638 C58.11304859 123.05107148 58.11398642 125.82701406 58.11352539 128.60302734 C58.11712067 129.40864105 58.12071594 130.21425476 58.12442017 131.04428101 C58.0918667 149.30283896 53.24730083 167.072109 41 181 C40.67 180.34 40.34 179.68 40 179 C40.9375 176.875 40.9375 176.875 42 175 C42.66 175 43.32 175 44 175 C44.2578125 174.33742188 44.515625 173.67484375 44.78125 172.9921875 C45.69838548 170.74050232 46.65403309 168.53354151 47.65625 166.3203125 C48.27100216 164.92194921 48.88558118 163.52350979 49.5 162.125 C49.80808594 161.46242188 50.11617187 160.79984375 50.43359375 160.1171875 C57.13590408 144.58393609 55.4251167 125.91534332 55.625 109.375 C55.66330316 106.84634255 55.70236135 104.31769642 55.7421875 101.7890625 C55.99973372 84.52513097 56.04712912 67.26545223 56 50 C55.21206055 50.0082077 54.42412109 50.01641541 53.61230469 50.02487183 C51.44010767 50.04749888 49.26790696 50.06977305 47.09570312 50.09173584 C44.818951 50.11620015 42.54226008 50.14653826 40.265625 50.18017578 C30.27647623 50.23031561 22.35732209 48.75910512 14 43 C11.6875 40.4375 11.6875 40.4375 10 38 C9.360625 37.443125 8.72125 36.88625 8.0625 36.3125 C0.90740328 28.29011882 -0.1620822 19.45978686 -0.0625 9.1875 C-0.05798828 8.30384766 -0.05347656 7.42019531 -0.04882812 6.50976562 C-0.03709866 4.33981441 -0.01916495 2.16989828 0 0 Z " fill="#F6F6F6" transform="translate(98,310)"/>
<path d="M0 0 C0.33 0 0.66 0 1 0 C1.06316406 1.28132812 1.12632813 2.56265625 1.19140625 3.8828125 C2.04482185 17.08324534 4.15473954 27.90650025 13.3125 38.0625 C22.74096688 46.00039198 31.68331093 46.76194608 43.625 46.8125 C48.69875 46.874375 53.7725 46.93625 59 47 C59 59.87 59 72.74 59 86 C53.080625 86.04125 47.16125 86.0825 41.0625 86.125 C38.28791382 86.15231201 38.28791382 86.15231201 35.45727539 86.18017578 C33.96240528 86.18602654 32.46753193 86.19112071 30.97265625 86.1953125 C29.84337708 86.2106604 29.84337708 86.2106604 28.69128418 86.22631836 C21.38235682 86.22867342 14.18864265 85.42699004 8.125 81.0625 C7.40570313 80.55847656 6.68640625 80.05445313 5.9453125 79.53515625 C4.15509176 78.12239169 2.56844733 76.65229515 1 75 C5.34070409 75.39460946 7.77200488 77.09306418 11.05859375 79.74609375 C16.27838315 83.11742654 21.67647635 83.32497242 27.6796875 83.4140625 C28.49245148 83.43342865 29.30521545 83.4527948 30.14260864 83.4727478 C32.71996812 83.53217883 35.29737315 83.57878181 37.875 83.625 C39.63022702 83.66321343 41.38543597 83.70226709 43.140625 83.7421875 C47.42698536 83.83942063 51.71317019 83.91927674 56 84 C55.67 72.78 55.34 61.56 55 50 C51.9475 50.04125 48.895 50.0825 45.75 50.125 C31.47628198 50.14690989 21.8238062 49.16891433 11 39.1484375 C4.90010126 32.75931943 -0.15791186 23.52886711 -0.09765625 14.55078125 C-0.09443359 13.70322266 -0.09121094 12.85566406 -0.08789062 11.98242188 C-0.07951172 11.10134766 -0.07113281 10.22027344 -0.0625 9.3125 C-0.05798828 8.41982422 -0.05347656 7.52714844 -0.04882812 6.60742188 C-0.03704983 4.40488013 -0.02060164 2.20247401 0 0 Z " fill="#C7C7C7" transform="translate(98,234)"/>
<path d="M0 0 C63.69 0 127.38 0 193 0 C193 0.33 193 0.66 193 1 C129.64 1 66.28 1 1 1 C1.144375 19.129375 1.28875 37.25875 1.4375 55.9375 C1.48060303 61.67116943 1.52370605 67.40483887 1.56811523 73.31225586 C1.61134763 78.43226431 1.61134763 78.43226431 1.65589905 83.55226135 C1.67517555 85.84053613 1.69248421 88.12882798 1.70826721 90.41712952 C1.73248927 93.87441496 1.76286976 97.33159554 1.79467773 100.78881836 C1.80044799 101.81574012 1.80621824 102.84266188 1.81216335 103.90070248 C1.82193738 104.82569829 1.83171141 105.7506941 1.84178162 106.70372009 C1.84823417 107.51397613 1.85468672 108.32423216 1.8613348 109.1590414 C1.80012985 111.01746284 1.80012985 111.01746284 3 112 C5.14743549 112.09425595 7.29801026 112.11742648 9.44750977 112.11352539 C10.12065216 112.11367142 10.79379456 112.11381744 11.48733521 112.1139679 C13.72205784 112.11326878 15.9566981 112.10547652 18.19140625 112.09765625 C19.73697362 112.09579206 21.28254157 112.09436816 22.82810974 112.09336853 C26.90357077 112.0895434 30.97899637 112.07971317 35.05444336 112.06866455 C39.21011882 112.05845032 43.36579999 112.05387089 47.52148438 112.04882812 C55.68100587 112.03809089 63.84049853 112.02101454 72 112 C72 112.33 72 112.66 72 113 C62.92101191 113.8334923 53.93867995 114.13627556 44.82421875 114.09765625 C43.10410583 114.09614563 43.10410583 114.09614563 41.34924316 114.09460449 C37.12865171 114.0894334 32.90807468 114.07547296 28.6875 114.0625 C19.220625 114.041875 9.75375 114.02125 0 114 C0 76.38 0 38.76 0 0 Z " fill="#F4F4F4" transform="translate(215,359)"/>
<path d="M0 0 C7.87153738 7.47297853 12.78533672 16.47853308 13.1015625 27.41796875 C13.14195321 32.36934291 13.02603031 37.30971145 12.8515625 42.2578125 C10.97436523 42.8293457 10.97436523 42.8293457 8.8515625 43.2578125 C6.88671875 42.11328125 6.88671875 42.11328125 4.9140625 40.4453125 C-2.42842472 34.59299796 -9.82225581 34.09069343 -19.05078125 34.16015625 C-20.13462852 34.16227867 -20.13462852 34.16227867 -21.2403717 34.16444397 C-23.52227115 34.16999025 -25.80406829 34.1825323 -28.0859375 34.1953125 C-29.64387878 34.20033446 -31.20182162 34.20489614 -32.75976562 34.20898438 C-36.55605961 34.21908627 -40.35213559 34.23867148 -44.1484375 34.2578125 C-44.4784375 40.8578125 -44.8084375 47.4578125 -45.1484375 54.2578125 C-45.4784375 54.2578125 -45.8084375 54.2578125 -46.1484375 54.2578125 C-46.1484375 46.6678125 -46.1484375 39.0778125 -46.1484375 31.2578125 C-40.91924935 31.18853474 -35.6916856 31.12892641 -30.46240234 31.09301758 C-28.68760754 31.07803157 -26.91284913 31.05763568 -25.13818359 31.03149414 C-1.50797664 30.69240001 -1.50797664 30.69240001 6.9765625 37.9453125 C7.72164062 38.56792969 8.46671875 39.19054687 9.234375 39.83203125 C10.03488281 40.53779297 10.03488281 40.53779297 10.8515625 41.2578125 C10.67484493 25.89944899 9.47263732 13.99775561 -1.66796875 2.390625 C-8.62861049 -3.59443073 -16.08548961 -5.85779906 -25.09765625 -6.05859375 C-26.25658134 -6.0897654 -26.25658134 -6.0897654 -27.43891907 -6.12156677 C-29.9045023 -6.18689788 -32.37019111 -6.24587065 -34.8359375 -6.3046875 C-36.50847441 -6.34788837 -38.18100069 -6.39150316 -39.85351562 -6.43554688 C-43.951715 -6.5425624 -48.05002046 -6.64387607 -52.1484375 -6.7421875 C-52.1484375 -7.0721875 -52.1484375 -7.4021875 -52.1484375 -7.7421875 C-12.70614236 -10.30352635 -12.70614236 -10.30352635 0 0 Z " fill="#DCDCDC" transform="translate(529.1484375,249.7421875)"/>
<path d="M0 0 C0.495 1.485 0.495 1.485 1 3 C-21.74809052 18.67485613 -47.26306843 27.38053717 -75 27 C-74.67 26.34 -74.34 25.68 -74 25 C-71.79785156 24.54516602 -71.79785156 24.54516602 -68.890625 24.25390625 C-67.83246582 24.14087158 -66.77430664 24.02783691 -65.68408203 23.91137695 C-64.55083496 23.79624756 -63.41758789 23.68111816 -62.25 23.5625 C-39.62840934 21.00620003 -17.90432446 14.75983737 0 0 Z " fill="#F2F2F2" transform="translate(362,444)"/>
<path d="M0 0 C16.91065132 -0.44739564 32.87610201 3.60976756 48.8125 8.9375 C49.44748413 9.14824158 50.08246826 9.35898315 50.73669434 9.57611084 C58.47740153 12.16713309 65.8204088 15.10660018 73 19 C72.67 19.66 72.34 20.32 72 21 C71.45174561 20.77860352 70.90349121 20.55720703 70.33862305 20.32910156 C67.7890211 19.30080759 65.23826802 18.27539784 62.6875 17.25 C61.82576172 16.90195313 60.96402344 16.55390625 60.07617188 16.1953125 C57.38926826 15.11655566 54.69692897 14.05343906 52 13 C51.09789795 12.64752197 50.1957959 12.29504395 49.26635742 11.93188477 C42.90825716 9.52729482 36.58967139 7.81272231 29.9375 6.4375 C28.95322021 6.22843018 27.96894043 6.01936035 26.95483398 5.80395508 C18.01272129 3.9355724 9.02817342 2.38634873 0 1 C0 0.67 0 0.34 0 0 Z " fill="#E5E5E5" transform="translate(315,110)"/>
<path d="M0 0 C0.66 0.33 1.32 0.66 2 1 C-1.41726768 4.85872328 -5.3477967 5.59316252 -10.1875 6.9375 C-11.10426514 7.19619873 -12.02103027 7.45489746 -12.96557617 7.72143555 C-23.82000691 10.66313697 -34.87664719 12.42233248 -46 14 C-46.77005371 14.11255127 -47.54010742 14.22510254 -48.33349609 14.34106445 C-52.89387201 14.96991851 -56.51198387 14.84150302 -61 14 C-61 13.67 -61 13.34 -61 13 C-60.40276123 12.93006836 -59.80552246 12.86013672 -59.19018555 12.78808594 C-39.88130162 10.49147521 -21.44769581 7.20303772 -3 1 C-2.01 0.67 -1.02 0.34 0 0 Z " fill="#E3E3E3" transform="translate(371,477)"/>
<path d="M0 0 C0.33 0 0.66 0 1 0 C1 11.22 1 22.44 1 34 C9.76492459 33.84281712 9.76492459 33.84281712 18.52880859 33.63964844 C28.96751288 33.54586498 36.62420998 35.82836525 45 42 C42 43 42 43 40.01953125 42.07421875 C38.56103179 41.15781643 37.10269545 40.24115444 35.64453125 39.32421875 C27.97185846 35.48221568 19.90917636 35.59678048 11.5 35.375 C10.29601562 35.33632813 9.09203125 35.29765625 7.8515625 35.2578125 C4.90118881 35.16414984 1.95081144 35.07842476 -1 35 C-1.12644038 23.29679784 -0.66425348 11.68374429 0 0 Z " fill="#FEFEFE" transform="translate(484,284)"/>
<path d="M0 0 C3.34817736 2.71912586 4.73040594 6.3828205 6.375 10.25 C6.67954102 10.95874268 6.98408203 11.66748535 7.29785156 12.39770508 C18 37.74919287 18 37.74919287 18 50 C17.34 50 16.68 50 16 50 C15.79246094 49.14921875 15.58492188 48.2984375 15.37109375 47.421875 C11.59825825 32.58310774 6.86991709 18.03264157 -0.03125 4.3359375 C-0.3509375 3.56507813 -0.670625 2.79421875 -1 2 C-0.67 1.34 -0.34 0.68 0 0 Z " fill="#E5E5E5" transform="translate(392,187)"/>
<path d="M0 0 C11.34930359 14.70952037 18.60281039 33.31287796 18 52 C17.34 52 16.68 52 16 52 C15.90501221 51.37134033 15.81002441 50.74268066 15.7121582 50.0949707 C13.27368462 34.27311212 10.84718955 20.7137662 1.35546875 7.4375 C-0.164895 4.70347412 -0.28032847 3.07811649 0 0 Z " fill="#EFEFEF" transform="translate(138,108)"/>
<path d="M0 0 C5.72916349 -0.02478342 11.45829552 -0.04289954 17.1875 -0.05493164 C19.13509668 -0.05994955 21.08268961 -0.06676534 23.03027344 -0.07543945 C25.83529589 -0.08761652 28.64026837 -0.09325383 31.4453125 -0.09765625 C32.31116974 -0.10281754 33.17702698 -0.10797882 34.06912231 -0.11329651 C38.4972821 -0.11370419 42.64025202 0.10386404 47 1 C47 1.33 47 1.66 47 2 C32.48 2 17.96 2 3 2 C2.01 4.97 1.02 7.94 0 11 C-0.66666667 13 -1.33333333 15 -2 17 C-3.44715727 13.12813552 -2.5441918 10.1767672 -1.5625 6.25 C-1.27503906 5.07953125 -0.98757813 3.9090625 -0.69140625 2.703125 C-0.46324219 1.81109375 -0.23507812 0.9190625 0 0 Z " fill="#F4F4F4" transform="translate(476,358)"/>
<path d="M0 0 C12.54 0 25.08 0 38 0 C34.39359333 2.40427111 31.66318794 2.34578876 27.48828125 2.4140625 C26.39594429 2.44311172 26.39594429 2.44311172 25.28153992 2.4727478 C22.95864525 2.53246376 20.63570081 2.57889617 18.3125 2.625 C16.73630668 2.66318721 15.16013405 2.70223938 13.58398438 2.7421875 C9.7227648 2.83978547 5.86176214 2.91941408 2 3 C1.67 9.6 1.34 16.2 1 23 C0.67 23 0.34 23 0 23 C0 15.41 0 7.82 0 0 Z " fill="#D7D7D7" transform="translate(483,281)"/>
<path d="M0 0 C1 3 1 3 -0.046875 5.27734375 C-4.97810832 12.97956826 -10.66887211 19.45441564 -17 26 C-17.69996094 26.73992187 -18.39992188 27.47984375 -19.12109375 28.2421875 C-21.95276001 31.17737704 -24.25071237 33.29945918 -28 35 C-26.7095304 32.13802177 -25.38876468 30.17313747 -23.09375 28.0390625 C-22.51915039 27.49161377 -21.94455078 26.94416504 -21.35253906 26.38012695 C-20.74120117 25.80093506 -20.12986328 25.22174316 -19.5 24.625 C-12.6770625 18.00548255 -7.22578841 10.9142622 -2 3 C-1.34 2.01 -0.68 1.02 0 0 Z " fill="#F5F5F5" transform="translate(391,411)"/>
<path d="M0 0 C7.37129618 0.90855511 13.54326525 10.05163025 17.90625 15.6328125 C18.81985697 16.85390502 19.72631243 18.08038585 20.625 19.3125 C21.05055176 19.88637451 21.47610352 20.46024902 21.91455078 21.05151367 C24.45772195 24.66541116 25.61398036 27.60070718 26 32 C23.48554103 30.74277051 23.32210128 29.82270074 22.125 27.3125 C19.6264856 22.67240182 16.53668457 18.79702235 13.125 14.8125 C12.6314502 14.23089111 12.13790039 13.64928223 11.62939453 13.05004883 C8.45491985 9.40587618 5.10122517 6.2753159 1.31591797 3.26831055 C0.88166504 2.84976807 0.44741211 2.43122559 0 2 C0 1.34 0 0.68 0 0 Z " fill="#F2F2F2" transform="translate(366,157)"/>
<path d="M0 0 C0.33 0 0.66 0 1 0 C1.06316406 1.28132812 1.12632813 2.56265625 1.19140625 3.8828125 C2.09974843 17.93283685 4.47285933 29.95759593 15.51953125 39.765625 C16.00808594 40.17296875 16.49664062 40.5803125 17 41 C17.66 41.66 18.32 42.32 19 43 C13.44481792 42.36346872 11.42623696 39.80736648 7.93359375 35.6875 C3.5712519 29.62428546 -0.14843973 22.11751961 -0.09765625 14.55078125 C-0.09443359 13.70322266 -0.09121094 12.85566406 -0.08789062 11.98242188 C-0.07951172 11.10134766 -0.07113281 10.22027344 -0.0625 9.3125 C-0.05798828 8.41982422 -0.05347656 7.52714844 -0.04882812 6.60742188 C-0.03704983 4.40488013 -0.02060164 2.20247401 0 0 Z " fill="#ECECEC" transform="translate(98,234)"/>
<path d="M0 0 C4.34070409 0.39460946 6.77200488 2.09306418 10.05859375 4.74609375 C15.08852057 7.994799 20.41018009 8.32235899 26.2421875 8.4140625 C27.39474533 8.44311172 27.39474533 8.44311172 28.57058716 8.4727478 C31.00528138 8.53214117 33.44002393 8.57876628 35.875 8.625 C37.53387386 8.66321693 39.19272867 8.70227079 40.8515625 8.7421875 C44.90088542 8.83780907 48.95030113 8.92198701 53 9 C53 9.33 53 9.66 53 10 C47.62902721 10.14947049 42.25929163 10.25773839 36.88671875 10.32958984 C35.06326176 10.35957243 33.23994664 10.40037387 31.41699219 10.45263672 C11.75046487 11.00192089 11.75046487 11.00192089 4 4 C2.65241076 2.68107665 1.31523542 1.35118886 0 0 Z " fill="#FFFFFF" transform="translate(99,309)"/>
<path d="M0 0 C2.43365039 6.69253857 -1.8765824 14.63450574 -4.65234375 20.75390625 C-7.53592515 26.79456662 -10.58112814 31.97476493 -15 37 C-15.33 36.34 -15.66 35.68 -16 35 C-15.0625 32.875 -15.0625 32.875 -14 31 C-13.34 31 -12.68 31 -12 31 C-11.61328125 30.02160156 -11.61328125 30.02160156 -11.21875 29.0234375 C-10.27703131 26.68725076 -9.31799606 24.36167388 -8.34375 22.0390625 C-8.04339844 21.31976563 -7.74304688 20.60046875 -7.43359375 19.859375 C-6.81397595 18.37644036 -6.19160292 16.89465377 -5.56640625 15.4140625 C-3.72556224 10.98971639 -2.26344849 6.62094586 -1 2 C-0.67 1.34 -0.34 0.68 0 0 Z " fill="#F2F2F2" transform="translate(154,454)"/>
<path d="M0 0 C-12.53742011 5.37318005 -25.57150488 6.1842324 -39 6 C-38.67 5.34 -38.34 4.68 -38 4 C-35.734375 3.52929688 -35.734375 3.52929688 -32.75 3.21875 C-31.66589844 3.09886719 -30.58179688 2.97898437 -29.46484375 2.85546875 C-27.74974609 2.67951172 -27.74974609 2.67951172 -26 2.5 C-15.85570144 1.44015305 -15.85570144 1.44015305 -5.90234375 -0.71289062 C-3.67724222 -1.0487119 -2.12965177 -0.67114861 0 0 Z " fill="#E3E3E3" transform="translate(326,465)"/>
<path d="M0 0 C0.33 0 0.66 0 1 0 C1.01417969 0.99257813 1.02835937 1.98515625 1.04296875 3.0078125 C1.43671755 16.53098921 4.6108537 28.10275842 13 39 C8.7114834 37.67485565 7.04697162 36.24488919 4.8125 32.375 C4.32394531 31.55773437 3.83539063 30.74046875 3.33203125 29.8984375 C0.12575518 22.92173121 -0.27572893 16.54804122 -0.125 9 C-0.11597656 8.12988281 -0.10695313 7.25976562 -0.09765625 6.36328125 C-0.07434619 4.2420658 -0.03848579 2.12099438 0 0 Z " fill="#EEEEEE" transform="translate(98,310)"/>
<path d="M0 0 C0 3.90103696 -1.0903128 4.47618113 -3.796875 7.1953125 C-4.5909375 7.99324219 -5.385 8.79117187 -6.203125 9.61328125 C-7.04359375 10.44214844 -7.8840625 11.27101563 -8.75 12.125 C-9.575 12.96160156 -10.4 13.79820312 -11.25 14.66015625 C-12.04921875 15.45550781 -12.8484375 16.25085938 -13.671875 17.0703125 C-14.4050293 17.80008301 -15.13818359 18.52985352 -15.89355469 19.28173828 C-18.05799492 21.0473074 -19.3657673 21.35041401 -22 22 C-22.33 22.99 -22.66 23.98 -23 25 C-23.66 24.67 -24.32 24.34 -25 24 C-21.37210516 19.55582882 -17.6671924 15.69013159 -13.30078125 11.9765625 C-10.48540032 9.55791606 -7.7411176 7.06441526 -5 4.5625 C-4.05125 3.69753906 -3.1025 2.83257812 -2.125 1.94140625 C-1.42375 1.30074219 -0.7225 0.66007812 0 0 Z " fill="#F7F7F7" transform="translate(444,429)"/>
<path d="M0 0 C0.66 0.66 1.32 1.32 2 2 C-11.21341463 22.12195122 -11.21341463 22.12195122 -18 26 C-16.53127012 22.73615581 -14.66722289 20.23970864 -12.375 17.5 C-7.82833882 11.92076375 -3.90435593 6.04344456 0 0 Z " fill="#F2F2F2" transform="translate(458,407)"/>
<path d="M0 0 C0.33 0 0.66 0 1 0 C1 3.96 1 7.92 1 12 C-2.84273719 12 -4.27445636 10.69551586 -7.4375 8.5625 C-11.90206142 5.5329144 -11.90206142 5.5329144 -17 4 C-17 3.34 -17 2.68 -17 2 C-18.98 2 -20.96 2 -23 2 C-23 1.67 -23 1.34 -23 1 C-15.37805597 0.35132391 -9.30765309 2.89051006 -3.4375 7.75 C-2.633125 8.4925 -1.82875 9.235 -1 10 C-0.67 6.7 -0.34 3.4 0 0 Z " fill="#DDDDDD" transform="translate(540,357)"/>
<path d="M0 0 C6.14624528 -0.21169616 11.57546355 0.52755844 17.5625 1.875 C18.77969727 2.13603516 18.77969727 2.13603516 20.02148438 2.40234375 C24.73980401 3.430549 29.37228719 4.6210037 34 6 C34 6.66 34 7.32 34 8 C26.41 6.68 18.82 5.36 11 4 C11 3.34 11 2.68 11 2 C7.37 1.67 3.74 1.34 0 1 C0 0.67 0 0.34 0 0 Z " fill="#E2E2E2" transform="translate(294,129)"/>
<path d="M0 0 C7.01907669 -0.59736823 12.48968958 1.35921602 18.12890625 5.6015625 C19.79972266 7.02597568 21.42006102 8.47594311 23 10 C22.01 10.33 21.02 10.66 20 11 C18.1328125 9.85546875 18.1328125 9.85546875 16.125 8.1875 C10.85695988 4.04215695 6.68912911 2.78695637 0 2 C0 1.34 0 0.68 0 0 Z " fill="#F7F7F7" transform="translate(518,282)"/>
<path d="M0 0 C3.48771905 3.19420423 4.9103287 6.78128962 6.75 11.0625 C7.07871094 11.79533203 7.40742188 12.52816406 7.74609375 13.28320312 C8.56358346 15.16135987 9.28925744 17.07890468 10 19 C9.67 19.66 9.34 20.32 9 21 C5.60999087 19.30499544 4.84535685 15.42103686 3.4375 12.0625 C2.81146015 10.59494019 2.18516942 9.12748737 1.55859375 7.66015625 C1.04425781 6.45230469 0.52992188 5.24445313 0 4 C-0.33 3.34 -0.66 2.68 -1 2 C-0.67 1.34 -0.34 0.68 0 0 Z " fill="#E0E0E0" transform="translate(392,187)"/>
<path d="M0 0 C4.40941707 0.4008561 6.87158914 2.20461125 10.28515625 4.7890625 C12.39534263 6.27917134 14.55601126 7.18533709 17 8 C17 8.66 17 9.32 17 10 C13.12208721 9.43818225 10.59084674 8.34625496 7.375 6.125 C6.61960937 5.61195313 5.86421875 5.09890625 5.0859375 4.5703125 C3.21150067 3.15921961 1.6041522 1.7063275 0 0 Z " fill="#E5E5E5" transform="translate(99,309)"/>
<path d="M0 0 C0.78117187 0.39832031 0.78117187 0.39832031 1.578125 0.8046875 C4.61030108 2.30121311 7.67808137 3.71191743 10.75 5.125 C12.50570312 5.93324219 12.50570312 5.93324219 14.296875 6.7578125 C15.18890625 7.16773438 16.0809375 7.57765625 17 8 C17 8.66 17 9.32 17 10 C12.23267992 9.48365821 9.13068774 8.17325312 5.125 5.5625 C4.15820312 4.94503906 3.19140625 4.32757813 2.1953125 3.69140625 C1.47085938 3.13324219 0.74640625 2.57507813 0 2 C0 1.34 0 0.68 0 0 Z " fill="#E6E6E6" transform="translate(101,233)"/>
<path d="M0 0 C2.6707644 0.37657199 3.79395927 0.78044841 5.66796875 2.77734375 C6.16941406 3.49019531 6.67085937 4.20304687 7.1875 4.9375 C7.69667969 5.64777344 8.20585938 6.35804688 8.73046875 7.08984375 C11.04728932 10.57576762 11.09071025 12.82732832 11 17 C10.73058594 16.4328125 10.46117187 15.865625 10.18359375 15.28125 C8.94841029 12.90056637 7.55954993 10.72462381 6.0625 8.5 C5.55847656 7.7471875 5.05445313 6.994375 4.53515625 6.21875 C3.07256715 4.10488077 1.55699827 2.04501265 0 0 Z " fill="#E7E7E7" transform="translate(527,327)"/>
<path d="M0 0 C0.33 0 0.66 0 1 0 C2.51233701 6.46794133 3.21432579 12.35590042 3 19 C2.34 19 1.68 19 1 19 C0.63645961 16.58440932 0.28389449 14.16805703 -0.0625 11.75 C-0.2181543 10.72712891 -0.2181543 10.72712891 -0.37695312 9.68359375 C-0.86524925 6.2150075 -1.22762141 3.33088887 0 0 Z " fill="#D3D3D3" transform="translate(153,141)"/>
<path d="M0 0 C2.55723195 0.9992545 3.7897249 1.66381944 5.265625 4.0234375 C5.59046875 4.79945313 5.9153125 5.57546875 6.25 6.375 C6.58515625 7.14585937 6.9203125 7.91671875 7.265625 8.7109375 C8 11 8 11 8 15 C7.34 15 6.68 15 6 15 C5.18618205 13.06305322 4.37399084 11.12542289 3.5625 9.1875 C3.11003906 8.10855469 2.65757812 7.02960938 2.19140625 5.91796875 C1.39624987 3.9704874 0.66520352 1.99561057 0 0 Z " fill="#EBEBEB" transform="translate(533,257)"/>
<path d="M0 0 C5.76044212 0.60636233 10.72014369 2.75658279 16 5 C16 5.66 16 6.32 16 7 C14.26982492 6.54548816 12.54090123 6.08621143 10.8125 5.625 C9.84957031 5.36976563 8.88664062 5.11453125 7.89453125 4.8515625 C5.17789793 4.05233704 2.60862825 3.0968638 0 2 C0 1.34 0 0.68 0 0 Z " fill="#F3F3F3" transform="translate(328,136)"/>
<path d="M0 0 C-7.2385335 3.23540512 -13.22859609 3.09141544 -21 2 C-21 1.67 -21 1.34 -21 1 C-18.25091555 0.63685675 -15.50116549 0.28419159 -12.75 -0.0625 C-11.97269531 -0.16626953 -11.19539063 -0.27003906 -10.39453125 -0.37695312 C-9.64042969 -0.47041016 -8.88632812 -0.56386719 -8.109375 -0.66015625 C-7.41811523 -0.74918213 -6.72685547 -0.83820801 -6.01464844 -0.92993164 C-3.82569152 -1.00606235 -2.08994187 -0.6249336 0 0 Z " fill="#CECECE" transform="translate(331,489)"/>
<path d="M0 0 C1.51839575 3.92655206 0.43537717 6.71821846 -0.8125 10.625 C-1.16957031 11.77226562 -1.52664062 12.91953125 -1.89453125 14.1015625 C-3 17 -3 17 -5 19 C-5.33 18.34 -5.66 17.68 -6 17 C-5.3045421 15.04609446 -4.6004742 13.09433943 -3.83203125 11.16796875 C-3.06447165 9.16798951 -2.4419318 7.18932419 -1.875 5.125 C-1 2 -1 2 0 0 Z " fill="#E0E0E0" transform="translate(154,454)"/>
<path d="M0 0 C0.66 0 1.32 0 2 0 C1.39644592 3.85025879 0.23227397 6.86101159 -1.5625 10.3125 C-2.01753906 11.19550781 -2.47257812 12.07851563 -2.94140625 12.98828125 C-3.29074219 13.65214844 -3.64007813 14.31601562 -4 15 C-4.66 14.01 -5.32 13.02 -6 12 C-4.02 8.04 -2.04 4.08 0 0 Z " fill="#E7E7E7" transform="translate(397,398)"/>
<path d="M0 0 C0.33 0.99 0.66 1.98 1 3 C-2.96 5.64 -6.92 8.28 -11 11 C-11 10.01 -11 9.02 -11 8 C-8.59375 5.95703125 -8.59375 5.95703125 -5.5 3.8125 C-3.96859375 2.73935547 -3.96859375 2.73935547 -2.40625 1.64453125 C-1.6121875 1.10183594 -0.818125 0.55914062 0 0 Z " fill="#ECECEC" transform="translate(362,444)"/>
<path d="M0 0 C4.12355429 1.67996656 7.67739146 3.91618417 11.375 6.375 C8.375 7.375 8.375 7.375 6.25390625 6.44921875 C5.10728516 5.76279297 5.10728516 5.76279297 3.9375 5.0625 C1.11994853 3.39866673 -1.68005574 1.80386817 -4.625 0.375 C-2.625 -0.625 -2.625 -0.625 0 0 Z " fill="#F3F3F3" transform="translate(517.625,319.625)"/>
<path d="M0 0 C0.66 0 1.32 0 2 0 C0.63842622 5.29500913 -2.60343955 7.23745533 -7 10 C-5.32598022 6.04322598 -2.86850715 3.15535787 0 0 Z " fill="#E7E7E7" transform="translate(447,423)"/>
<path d="M0 0 C0.99 0.33 1.98 0.66 3 1 C2.34 4.63 1.68 8.26 1 12 C0.34 11.34 -0.32 10.68 -1 10 C-0.9765625 7.6171875 -0.9765625 7.6171875 -0.625 4.875 C-0.51414062 3.96492188 -0.40328125 3.05484375 -0.2890625 2.1171875 C-0.19367188 1.41851562 -0.09828125 0.71984375 0 0 Z " fill="#E9E9E9" transform="translate(408,359)"/>
<path d="M0 0 C3.78611227 0.54087318 5.55400767 2.11722332 8 5 C8 5.66 8 6.32 8 7 C4.2047869 5.50902342 2.38957269 3.24299151 0 0 Z " fill="#DFDFDF" transform="translate(526,250)"/>
<path d="M0 0 C-1.97420135 2.52259061 -2.96745642 2.9929808 -6.1875 3.6875 C-7.5796875 3.8421875 -7.5796875 3.8421875 -9 4 C-8.67 3.01 -8.34 2.02 -8 1 C-5.07175348 0.02391783 -3.04386724 -0.08226668 0 0 Z " fill="#F5F5F5" transform="translate(357,483)"/>
<path d="M0 0 C2.7972908 2.06756277 3.02692273 3.14440371 3.6875 6.6875 C3.790625 7.780625 3.89375 8.87375 4 10 C1.16625119 6.79663178 0.4794463 4.21912747 0 0 Z " fill="#F5F5F5" transform="translate(400,207)"/>
<path d="M0 0 C0.66 0.33 1.32 0.66 2 1 C0.8125 2.5625 0.8125 2.5625 -1 4 C-3.6875 3.6875 -3.6875 3.6875 -6 3 C-3 1 -3 1 0 0 Z " fill="#DEDEDE" transform="translate(371,477)"/>
<path d="M0 0 C0.33 0.66 0.66 1.32 1 2 C-0.62339805 3.70884005 -2.29319053 5.37446717 -4 7 C-4.66 7 -5.32 7 -6 7 C-4.60667426 3.63279613 -3.0210714 2.0140476 0 0 Z " fill="#E9E9E9" transform="translate(419,451)"/>
</svg>
