<?xml version="1.0" encoding="UTF-8"?>
<svg id="Layer_1" data-name="Layer 1" xmlns="http://www.w3.org/2000/svg"
     xmlns:xlink="http://www.w3.org/1999/xlink" viewBox="0 0 400 100" width="100%" height="auto">
  <defs>
    <style>
      .cls-1 { fill: url(#linear-gradient-12); }
      .cls-1, .cls-2, .cls-3, .cls-4, .cls-5, .cls-6, .cls-7, .cls-8, .cls-9, .cls-10, .cls-11, .cls-12 {
        stroke-width: 0px;
      }
      .cls-2 { fill: url(#linear-gradient); }
      .cls-3 { fill: url(#linear-gradient-6); }
      .cls-4 { fill: url(#linear-gradient-11); }
      .cls-5 { fill: url(#linear-gradient-5); }
      .cls-6 { fill: url(#linear-gradient-2); }
      .cls-7 { fill: url(#linear-gradient-7); }
      .cls-8 { fill: url(#linear-gradient-3); }
      .cls-9 { fill: url(#linear-gradient-9); }
      .cls-10 { fill: url(#linear-gradient-8); }
      .cls-11 { fill: url(#linear-gradient-10); }
      .cls-12 { fill: url(#linear-gradient-4); }

      /* shining overlay animation */
      .shine-overlay {
        fill: url(#shine-gradient);
        opacity: 0.9;
        transform-origin: 50% 50%;
        animation: shineMove 2.2s linear infinite;
      }

      @keyframes shineMove {
        0% { transform: translateX(-180%) rotate(-20deg); }
        100% { transform: translateX(180%) rotate(-20deg); }
      }
    </style>

    <!-- Original gradients -->
    <linearGradient id="linear-gradient" x1="-1316.5" y1="725.12" x2="-1313.32" y2="725.12"
      gradientTransform="translate(144574.28 96565.05) rotate(4.88) scale(115.64 -115.64)" gradientUnits="userSpaceOnUse">
      <stop offset="0" stop-color="#1f2e31"/>
      <stop offset="1" stop-color="#6d6d6d"/>
    </linearGradient>
    <linearGradient id="linear-gradient-2" x1="-1316.5" y1="725.18" x2="-1313.32" y2="725.18" xlink:href="#linear-gradient"/>
    <linearGradient id="linear-gradient-3" x1="-1316.5" y1="725.21" x2="-1313.32" y2="725.21" xlink:href="#linear-gradient"/>
    <linearGradient id="linear-gradient-4" x1="-1316.5" y1="725.28" x2="-1313.32" y2="725.28" xlink:href="#linear-gradient"/>
    <linearGradient id="linear-gradient-5" x1="-1316.5" y1="725.04" x2="-1313.32" y2="725.04" xlink:href="#linear-gradient"/>
    <linearGradient id="linear-gradient-6" x1="-1316.5" y1="725.05" x2="-1313.32" y2="725.05" xlink:href="#linear-gradient"/>
    <linearGradient id="linear-gradient-7" x1="-1316.5" y1="725.06" x2="-1313.32" y2="725.06" xlink:href="#linear-gradient"/>
    <linearGradient id="linear-gradient-8" x1="-1316.5" y1="725.3" x2="-1313.32" y2="725.3" xlink:href="#linear-gradient"/>
    <linearGradient id="linear-gradient-9" x1="-1316.5" y1="725.31" x2="-1313.32" y2="725.31" xlink:href="#linear-gradient"/>
    <linearGradient id="linear-gradient-10" x1="-1316.5" y1="725.32" x2="-1313.32" y2="725.32" xlink:href="#linear-gradient"/>
    <linearGradient id="linear-gradient-11" x1="-1304.8" y1="729.83" x2="-1301.62" y2="729.83"
      gradientTransform="translate(56563.2 59751.41) rotate(17.4) scale(54.98 -54.98)" gradientUnits="userSpaceOnUse">
      <stop offset="0" stop-color="#5b787c"/>
      <stop offset="1" stop-color="#89b4bb"/>
    </linearGradient>
    <linearGradient id="linear-gradient-12" x1="-1304.8" y1="729.54" x2="-1301.62" y2="729.54"
      gradientTransform="translate(56563.2 59751.47) rotate(17.4) scale(54.98 -54.98)" xlink:href="#linear-gradient-11"/>

    <!-- shine gradient (diagonal) -->
    <linearGradient id="shine-gradient" x1="0%" y1="0%" x2="100%" y2="0%">
      <stop offset="0%" stop-color="#ffffff" stop-opacity="0"/>
      <stop offset="40%" stop-color="#ffffff" stop-opacity="0.0"/>
      <stop offset="50%" stop-color="#ffffff" stop-opacity="0.95"/>
      <stop offset="60%" stop-color="#ffffff" stop-opacity="0.0"/>
      <stop offset="100%" stop-color="#ffffff" stop-opacity="0"/>
    </linearGradient>

    <!-- Mask built from the logo shapes (white = visible for overlay) -->
    <mask id="logo-mask" maskUnits="userSpaceOnUse" x="0" y="0" width="400" height="100">
      <!-- black background -->
      <rect x="0" y="0" width="400" height="100" fill="black" />
      <!-- duplicate logo shapes here as white fills for the mask -->
      <g fill="white" stroke="none" transform="">
        <path d="m170.03,61.62c-.28-1.06-.73-2.14-1.35-3.25-.62-1.1-1.52-2.09-2.69-2.96-1.18-.87-2.59-1.67-4.24-2.38-1.65-.71-3.71-1.26-6.18-1.63-2.47-.38-5.24-.56-8.3-.56H59.83v30h87.48c3.68,0,6.93-.31,9.76-.93,2.83-.62,5.06-1.4,6.71-2.34,1.65-.94,2.99-2.08,4.04-3.43,1.05-1.34,1.74-2.64,2.1-3.89.35-1.25.53-2.59.53-4.01v-1.21c0-1.21-.14-2.34-.42-3.41h0Zm-10.35,4.26c0,5.16-4.4,7.74-13.2,7.74h-76.35v-15.69h76.35c8.8,0,13.2,2.57,13.2,7.7v.24Z"/>
        <path d="m216.91,68.45c-1.03-1.11-2.37-1.9-4.02-2.37,3.63-1.18,5.44-3.31,5.44-6.4v-.47c0-5.05-4.24-7.58-12.73-7.58h-23.65v29.2h9.18v-10.36h11.98c2.23,0,3.81.41,4.73,1.22.92.81,1.38,2.12,1.38,3.92v5.22h9.23v-8.05c0-1.78-.51-3.23-1.54-4.34h0Zm-8.16-7.32c0,.86-.30,1.56-.91,2.08s-1.54.79-2.8.79h-13.92v-5.73h13.92c1.26,0,2.19.26,2.8.79.6.52.91,1.2.91,2.04v.04Z"/>
        <rect x="230.59" y="51.19" width="10.11" height="29.62"/>
        <path d="m305.52,51.05v29.75h34.62v-6.92h-24.59v-4.88h23.59v-6.8h-23.59v-4.4h24.16v-6.76h-34.18Z"/>
        <path d="m8.71,72.18h1.93v-8.35h3.64v-1.73H5.06v1.73h3.64v8.35Z"/>
        <path d="m18.96,72.18h1.92v-4.18h5.18v4.18h1.93v-10.08h-1.93v4.18h-5.18v-4.18h-1.92v10.08Z"/>
        <path d="m33.39,72.18h7.88v-1.73h-5.96v-2.49h5.67v-1.64h-5.67v-2.49h5.96v-1.73h-7.88v10.08Z"/>
        <path d="m357.68,72.18h1.92v-4.18h5.18v4.18h1.93v-10.08h-1.93v4.18h-5.18v-4.18h-1.92v10.08Z"/>
        <path d="m371.82,67.91c0,2.52,2.02,4.56,4.61,4.56s4.61-2.05,4.61-4.56v-5.8h-1.91v5.8c0,1.47-1.11,2.75-2.69,2.75s-2.68-1.28-2.68-2.75v-5.8h-1.93v5.8Z"/>
        <path d="m386.17,72.18h5.93c1.57,0,2.84-1.27,2.84-2.84,0-.98-.49-1.75-1.24-2.2.75-.45,1.24-1.22,1.24-2.2,0-1.57-1.27-2.84-2.84-2.84h-5.93v10.08Zm1.91-1.73v-2.49h3.73c.74,0,1.31.55,1.31,1.25s-.58,1.24-1.31,1.24h-3.73Zm3.73-6.62c.74,0,1.31.55,1.31,1.24s-.58,1.25-1.31,1.25h-3.73v-2.49h3.73Z"/>
        <path d="m279.88,80.47l15.46-29.3h-10.39l-11.04,21.54-4.73-8.61-3.47-5.74-7.8,5.68,1.8,2.82,7.72,13.61h12.45Z"/>
        <path d="m193.81,38.69c-38.16,2.91-70.68-4.84-70.68-4.84,30.58,4.04,59.42,0,59.42,0-15.35-9.62-30.91-12.75-44.3-12.95l4.76,11.82-9.43-11.78c-19.45.68-33.3,7.15-33.3,7.15,11.26,2.73,16.88,9.9,16.88,9.9-15.82-11.6-57.31-4.14-57.31-4.14l-3.87,8.94-5.28-13.67c18.99,3.08,38.32-3.76,38.32-3.76,79.81-26.31,104.08,7.52,104.08,7.52,25.77-2.14,40.68,2.37,54.57,9.56,6.16,3.19,11.29,6.86,17.51,15.17,1,1.34,3.53,5.73,3.53,5.73l-9.02,3.52c-2.15-4.18-9.39-11.98-14.27-15.39-3.32-2.33-8.01-5-13.26-7.1-6.62-2.66-11.59-3.93-14.15-4.41-13.07-2.5-24.22-1.26-24.22-1.26Z"/>
      </g>
    </mask>
  </defs>

  <!-- Original logo (visible, with gradients) -->
  <g>
    <path class="cls-2" d="m170.03,61.62c-.28-1.06-.73-2.14-1.35-3.25-.62-1.1-1.52-2.09-2.69-2.96-1.18-.87-2.59-1.67-4.24-2.38-1.65-.71-3.71-1.26-6.18-1.63-2.47-.38-5.24-.56-8.3-.56H59.83v30h87.48c3.68,0,6.93-.31,9.76-.93,2.83-.62,5.06-1.4,6.71-2.34,1.65-.94,2.99-2.08,4.04-3.43,1.05-1.34,1.74-2.64,2.1-3.89.35-1.25.53-2.59.53-4.01v-1.21c0-1.21-.14-2.34-.42-3.41h0Zm-10.35,4.26c0,5.16-4.4,7.74-13.2,7.74h-76.35v-15.69h76.35c8.8,0,13.2,2.57,13.2,7.7v.24Z"/>
    <path class="cls-6" d="m216.91,68.45c-1.03-1.11-2.37-1.9-4.02-2.37,3.63-1.18,5.44-3.31,5.44-6.4v-.47c0-5.05-4.24-7.58-12.73-7.58h-23.65v29.2h9.18v-10.36h11.98c2.23,0,3.81.41,4.73,1.22.92.81,1.38,2.12,1.38,3.92v5.22h9.23v-8.05c0-1.78-.51-3.23-1.54-4.34h0Zm-8.16-7.32c0,.86-.30,1.56-.91,2.08s-1.54.79-2.8.79h-13.92v-5.73h13.92c1.26,0,2.19.26,2.8.79.6.52.91,1.2.91,2.04v.04Z"/>
    <rect class="cls-8" x="230.59" y="51.19" width="10.11" height="29.62"/>
    <path class="cls-12" d="m305.52,51.05v29.75h34.62v-6.92h-24.59v-4.88h23.59v-6.8h-23.59v-4.4h24.16v-6.76h-34.18Z"/>
  </g>
  <g>
    <path class="cls-5" d="m8.71,72.18h1.93v-8.35h3.64v-1.73H5.06v1.73h3.64v8.35Z"/>
    <path class="cls-3" d="m18.96,72.18h1.92v-4.18h5.18v4.18h1.93v-10.08h-1.93v4.18h-5.18v-4.18h-1.92v10.08Z"/>
    <path class="cls-7" d="m33.39,72.18h7.88v-1.73h-5.96v-2.49h5.67v-1.64h-5.67v-2.49h5.96v-1.73h-7.88v10.08Z"/>
  </g>
  <g>
    <path class="cls-10" d="m357.68,72.18h1.92v-4.18h5.18v4.18h1.93v-10.08h-1.93v4.18h-5.18v-4.18h-1.92v10.08Z"/>
    <path class="cls-9" d="m371.82,67.91c0,2.52,2.02,4.56,4.61,4.56s4.61-2.05,4.61-4.56v-5.8h-1.91v5.8c0,1.47-1.11,2.75-2.69,2.75s-2.68-1.28-2.68-2.75v-5.8h-1.93v5.8Z"/>
    <path class="cls-11" d="m386.17,72.18h5.93c1.57,0,2.84-1.27,2.84-2.84,0-.98-.49-1.75-1.24-2.2.75-.45,1.24-1.22,1.24-2.2,0-1.57-1.27-2.84-2.84-2.84h-5.93v10.08Zm1.91-1.73v-2.49h3.73c.74,0,1.31.55,1.31,1.25s-.58,1.24-1.31,1.24h-3.73Zm3.73-6.62c.74,0,1.31.55,1.31,1.24s-.58,1.25-1.31,1.25h-3.73v-2.49h3.73Z"/>
  </g>
  <g>
    <path class="cls-4" d="m279.88,80.47l15.46-29.3h-10.39l-11.04,21.54-4.73-8.61-3.47-5.74-7.8,5.68,1.8,2.82,7.72,13.61h12.45Z"/>
    <path class="cls-1" d="m193.81,38.69c-38.16,2.91-70.68-4.84-70.68-4.84,30.58,4.04,59.42,0,59.42,0-15.35-9.62-30.91-12.75-44.3-12.95l4.76,11.82-9.43-11.78c-19.45.68-33.3,7.15-33.3,7.15,11.26,2.73,16.88,9.9,16.88,9.9-15.82-11.6-57.31-4.14-57.31-4.14l-3.87,8.94-5.28-13.67c18.99,3.08,38.32-3.76,38.32-3.76,79.81-26.31,104.08,7.52,104.08,7.52,25.77-2.14,40.68,2.37,54.57,9.56,6.16,3.19,11.29,6.86,17.51,15.17,1,1.34,3.53,5.73,3.53,5.73l-9.02,3.52c-2.15-4.18-9.39-11.98-14.27-15.39-3.32-2.33-8.01-5-13.26-7.1-6.62-2.66-11.59-3.93-14.15-4.41-13.07-2.5-24.22-1.26-24.22-1.26Z"/>
  </g>

  <!-- shining overlay rect masked to the logo shapes -->
  <rect class="shine-overlay" x="-220" y="-40" width="300" height="200" mask="url(#logo-mask)" transform="rotate(-20)"/>
</svg>
