<?xml version="1.0" encoding="utf-8"?>
<!-- Generator: Adobe Illustrator 27.0.0, SVG Export Plug-In . SVG Version: 6.00 Build 0)  -->
<svg version="1.1" id="Layer_1" xmlns="http://www.w3.org/2000/svg" xmlns:xlink="http://www.w3.org/1999/xlink" x="0px" y="0px"
	 viewBox="0 0 512 512" style="enable-background:new 0 0 512 512;" xml:space="preserve">
<style type="text/css">
	.st0{fill:#E6E7E8;}
	.st1{fill:#ACAFB2;}
	.st2{fill:#01336B;}
	.st3{fill:#8D9093;}
	.st4{fill:#5F6269;}
	.st5{fill:#101A4B;}
	.st6{fill:#FFFFFF;}
</style>
<g id="XMLID_1_">
	<path id="XMLID_2_" class="st0" d="M254.16,511.7c-5.12-1.99-42.66-20.19-52.9-25.74c-70.11-38.11-116.75-83.9-154.86-151.88
		c-25.6-45.93-39.25-94.99-43.8-157.14c-1-13.94-0.57-60.15,0.85-76.37l0.57-7.11l10.24-7.82C51.51,57.21,95.6,32.89,134.56,19.66
		c22.18-7.68,48.92-13.79,76.08-17.49c19.91-2.7,68.12-2.99,87.46-0.43c46.64,6.11,82.34,16.5,121.73,35.69
		c29.86,14.51,61.29,34.56,85.18,54.18l3.27,2.7l1,18.2c1.28,22.47,0.57,66.13-1.28,82.91c-3.13,27.59-6.97,46.22-14.79,72.81
		c-6.68,22.61-10.81,32.99-20.76,52.62c-19.77,39.11-41.24,68.97-70.53,98.26c-34.27,34.13-67.12,56.31-123.29,82.91
		C257.57,511.98,256.15,512.55,254.16,511.7L254.16,511.7z M459.22,311.61c11.95-23.75,17.63-38.25,22.47-58.16
		c2.56-10.1,4.41-24.6,3.13-23.46c-0.28,0.28-2.42,7.25-4.55,15.5c-8.53,32.71-14.79,50.34-26.88,74.52
		c-3.7,7.39-5.83,12.37-4.84,11.09C449.69,329.96,454.38,321.14,459.22,311.61L459.22,311.61z M109.39,140.11
		c0-0.43,0.71-1.28,1.71-1.71c1-0.57,2.56-2.42,3.7-4.27c1.14-1.85,5.12-6.68,8.82-10.95c18.91-21.19,36.83-34.7,60.01-45.36
		c10.52-4.84,17.06-7.11,31.43-10.95c6.54-1.71,12.37-3.56,12.8-3.98s1.85-0.85,3.13-0.85c2.13,0,2.13-0.14-0.71-1.56
		s-3.41-1.42-12.37,0.43c-33.42,6.97-66.27,25.03-89.59,49.35c-8.82,9.1-18.77,22.04-21.76,28.16c-1.14,2.13-2.56,4.69-3.27,5.55
		c-0.85,1-0.85,1.56-0.28,1.56c0.57,0,1,0.71,1,1.42c0,0.85,1.14,0,2.7-2.28C108.11,142.67,109.39,140.68,109.39,140.11
		L109.39,140.11z"/>
	<path id="XMLID_3_" class="st1" d="M240.79,504.02c-33.7-15.93-54.61-27.3-75.09-40.96c-52.05-34.84-91.58-79.49-122.44-138.22
		c-16.5-31.43-28.73-69.4-34.84-107.93c-4.27-27.02-5.12-43.52-4.55-80.77c0.28-18.63,0.85-35.55,1.14-37.54
		c0.43-3.56,1.14-4.27,9.1-10.67c40.81-32.57,93.86-59.87,141.78-72.95c34.13-9.39,64.85-13.51,99.97-13.51
		c32.85,0,60.44,3.41,93.71,11.8c51.91,12.94,108.36,42.38,156.57,81.48c2.7,2.28,3.41,70.39,0.85,95.99
		c-2.84,29.29-6.83,49.35-15.64,78.64c-10.1,33.7-22.33,59.16-44.8,92.86c-15.22,23.04-26.73,36.97-45.22,55.6
		c-30.57,30.57-61.58,52.19-107.08,74.94c-19.77,9.81-36.97,17.78-38.54,17.78C255.15,510.56,248.47,507.72,240.79,504.02
		L240.79,504.02z M278.33,490.79c24.03-12.09,33.42-17.63,38.82-22.75l29.44-16.07l49.06-35.84l65.7-88.88l34.56-96.7l6.26-78.78
		l-3.56-52.19l-51.76-38.96l-63.57-30.15c-17.78-8.25-56.17-18.06-87.31-22.33c-16.07-2.28-56.6-2.7-74.37-1
		c-36.97,3.7-71.39,11.95-99.12,23.75c-33.7,14.36-52.05,24.46-85.61,46.93c-23.04,15.5-24.03,16.21-24.6,19.34
		c-0.28,1.85-0.85,13.65-1.28,26.45c-1.99,74.94,10.67,138.94,38.25,194.11c43.66,83.33,116.61,151.59,206.06,183.02
		C257.85,500.89,263.4,498.47,278.33,490.79L278.33,490.79z"/>
	<path id="XMLID_50_" class="st2" d="M239.94,468.75c-47.35-24.6-75.37-44.08-103.1-71.81c-25.6-25.6-42.52-48.07-60.3-80.63
		c-30.29-55.32-42.09-116.89-36.83-193.83l0.57-8.25l8.53-6.4c39.53-29.86,81.34-50.91,121.3-61.43
		c30.57-7.96,51.76-10.67,84.9-10.67c30.43,0,46.93,1.85,75.94,8.25c36.26,8.11,75.8,25.6,111.06,49.2
		c14.51,9.67,28.44,20.34,29.29,22.18c0.43,1,0.85,18.34,0.85,38.4c0.14,33.28-0.14,37.68-1.99,51.05
		c-7.54,54.61-22.61,94.99-52.33,139.5c-29.72,44.65-68.12,80.35-116.33,107.93c-9.39,5.4-42.66,23.18-44.94,23.89
		C256.15,476.57,248.47,473.16,239.94,468.75L239.94,468.75z"/>
	<path id="XMLID_4_" class="st0" d="M275.35,414.57c32.28-3.56,63.42-15.64,89.31-34.84c8.96-6.54,24.6-21.76,32-30.86
		c18.49-22.9,31.43-50.06,37.68-79.49c2.28-10.81,2.42-12.94,2.42-34.27c0-19.77-0.28-24.03-1.99-32.85
		c-10.24-53.61-42.52-98.69-90.16-125.85c-16.64-9.53-38.25-17.21-59.02-20.76c-13.79-2.42-40.96-2.84-54.18-1
		c-44.94,6.68-84.61,28.01-113.05,61.01c-40.67,47.07-54.32,109.36-37.12,169.23c13.94,48.63,49.77,90.87,95.99,112.91
		c16.78,7.96,39.82,14.65,58.16,16.64C245.34,415.71,265.39,415.71,275.35,414.57L275.35,414.57z M229.27,392.1
		c-55.03-9.24-102.82-47.5-122.72-97.98c-7.68-19.48-10.52-33.56-11.23-54.32c-0.57-16.92,0.57-29.01,4.12-43.23
		c15.5-61.86,63.28-107.65,124.72-119.45c13.65-2.7,14.65-2.56,16.21,1.42c3.7,8.96,7.11,27.3,10.52,57.17
		c1.42,2.7-0.43,23.32,5.55,20.76c1.14-0.71,1.71-2.84,2.28-7.96c3.56-37.12,9.39-67.97,13.65-72.24c1.14-1.14,2.42-1.14,10.38,0.14
		c32.71,5.26,62.57,20.76,86.89,45.08c12.66,12.8,20.76,23.61,28.44,38.25c13.79,26.59,19.48,51.48,18.49,80.06
		c-0.57,14.51-1.85,23.46-5.55,36.97c-15.36,56.46-62.14,100.82-119.6,113.34c-5.55,1.28-12.09,2.42-14.36,2.84l-4.27,0.57
		l-1.42-3.41c-4.27-10.1-9.67-39.96-11.8-65.56c-0.57-6.4-1.14-12.23-1.42-13.08c-0.43-1.56-3.41-2.13-4.27-0.85
		c-0.28,0.43-1.42,9.81-2.7,20.9c-3.7,33.28-8.82,59.02-12.09,61.15C237.52,393.52,237.8,393.52,229.27,392.1L229.27,392.1z"/>
	<path id="XMLID_5_" class="st3" d="M240.79,403.48c-0.71-0.14-6.11-0.71-11.95-1.14c-10.38-0.85-22.04-3.7-33.13-7.82
		c-5.12-1.99-13.08-6.4-12.51-6.97c0.14-0.14,3.56,0.85,7.39,2.42c17.21,6.68,23.61,8.11,41.24,8.67c12.8,0.43,17.21,1,19.91,2.13
		s3.13,1.71,2.28,2.42C252.88,403.91,243.78,404.19,240.79,403.48L240.79,403.48z M256.86,403.19c-1.14-0.71-1.28-5.12-1.14-30.86
		c0.14-16.5,1.14-33.56,1.14-37.97c-0.14-9.39,0.28-22.61-1.14-22.61c0.85-0.28,1.85,0.71,1.99,2.84
		c0.57,10.1,1.14,54.61,4.12,72.53c1.85,11.09,4.55,11.8,17.06,12.51c15.36-0.71,23.89-2.42,40.24-8.67
		c5.4-1.99,9.81-3.56,10.1-3.27c0.71,0.71-8.11,5.26-15.93,8.11c-11.23,3.98-22.9,6.4-36.69,7.54
		C262.83,404.19,258.57,404.19,256.86,403.19L256.86,403.19z"/>
	<path id="XMLID_45_" class="st3" d="M255.86,155.19c1.28,0,1.99-15.22,1.14-23.04c-1.42-11.8-1.71-66.27-0.28-67.69
		c1.85-1.85,23.46,0.43,37.97,4.12c15.07,3.84,23.46,6.97,36.83,13.94c9.81,5.12,19.2,11.23,18.49,11.95
		c-0.14,0.14-5.97-2.42-12.8-5.83c-16.07-8.11-24.03-10.95-40.1-14.22c-7.25-1.56-16.21-3.56-19.91-4.41
		c-8.82-2.28-10.95-2.13-13.65,0.28c-1.99,1.85-2.28,3.13-3.13,11.8c-0.71,7.25-0.57,11.52,0.28,16.78
		C260.41,112.24,263.54,119.92,255.86,155.19L255.86,155.19z"/>
	<path id="XMLID_6_" class="st4" d="M239.94,502.31c-32.71-15.5-51.62-25.88-71.1-38.54c-47.35-31-83.9-70.11-114.48-122.44
		C26.06,292.98,10.7,241.79,6.29,180.5C5.15,165.57,5.72,106.98,7,99.16s1.85-1.99,1,11.09c-4.84,79.78,9.24,156.43,39.39,212.74
		c28.16,52.76,62.29,92.58,107.51,125.57c18.2,13.23,49.91,31.85,83.33,48.78c14.36,7.25,17.78,8.67,20.19,8.39
		c1.56-0.28,7.96-2.84,14.22-5.55c24.18-10.95,44.94-22.61,53.19-29.72c2.28-1.99,12.23-9.39,22.33-16.5
		c10.1-7.11,22.9-16.92,28.73-21.76c49.91-41.81,90.59-102.67,109.36-163.4c11.66-38.11,17.78-82.76,17.78-129.27
		c0-19.34-1.14-40.39-2.28-43.37c-0.43-1.14-0.14-1.56,1.71-1.56c1.99,0,2.28,0.43,2.84,4.27c1.28,10.52,2.13,49.77,1.42,67.41
		c-1.71,39.68-5.97,65.84-16.5,100.68c-7.11,23.75-11.09,33.7-20.76,52.9c-21.33,42.09-49.91,80.63-79.78,107.51
		c-29.15,26.17-53.47,42.38-95.71,63.42c-16.07,8.11-38.54,18.91-38.96,18.77C255.58,509.71,248.47,506.44,239.94,502.31
		L239.94,502.31z M239.37,486.67c-23.61-12.23-54.61-32.14-64.7-41.38c-3.98-3.56-3.84-3.56,9.81,4.98
		c13.37,8.25,30.86,17.92,51.34,28.16l19.34,9.67l12.23-6.11c40.67-20.19,66.27-35.98,90.59-56.03
		c37.68-31,66.13-65.56,89.45-108.79c25.6-47.35,37.83-100.26,37.83-162.68c0-17.06-1.56-46.36-2.7-49.49
		c-1.28-3.27-36.69-28.01-55.89-38.96c-20.34-11.66-45.65-22.9-71.96-32.14c-7.54-2.7-13.94-4.98-14.22-5.26
		c-1.42-1.42,21.62,3.98,34.7,8.11c22.04,7.11,46.36,18.49,66.55,31c9.24,5.69,35.55,24.89,43.37,31.57
		c1.85,1.56,2.13,2.84,2.99,14.08c1.28,15.93,0.43,63.85-1.42,79.35c-3.41,30.72-11.8,66.27-22.04,94.14
		c-5.26,14.36-19.48,43.66-27.87,57.31c-6.68,10.95-23.89,35.84-31.43,45.36c-13.51,16.92-47.21,48.49-61.58,57.59
		c-10.67,6.68-55.89,30.01-74.66,38.4c-5.69,2.56-11.52,5.55-13.08,6.54c-1.42,1-2.7,1.85-2.99,1.85
		C253.02,493.78,246.76,490.51,239.37,486.67L239.37,486.67z M257.71,402.2c-1.14-0.71-1.28-3.98-1-22.47
		c0.28-23.75,1.85-32.42,1.99-11.38c0.14,16.92,1.14,27.59,2.84,28.87c1.85,1.28,2.7,4.98,1.14,4.98c-0.71,0-1.71,0.14-2.42,0.43
		C259.56,402.91,258.42,402.77,257.71,402.2L257.71,402.2z M241.36,401.35c-0.71-1.14,6.68-1.14,8.39,0c1,0.57,0,0.85-3.27,0.85
		C243.92,402.2,241.64,401.77,241.36,401.35L241.36,401.35z M129.73,122.48c0-1.42,9.95-11.8,17.06-17.78
		c15.22-12.94,36.26-24.74,53.75-30.29c17.21-5.4,49.2-11.38,49.2-9.1c0,0.57-0.14,1-0.28,1c-2.99,0-18.63,3.56-30.72,7.11
		c-22.75,6.54-45.65,18.06-65.7,32.99C139.54,116.36,129.73,123.19,129.73,122.48L129.73,122.48z M257.57,108.97
		c-1-6.68-1.71-38.54-0.85-41.38l0.71-2.7l9.67,0.28c10.67,0.28,23.32,2.42,35.41,5.97c7.54,2.13,19.2,6.97,19.2,7.82
		c0,0.28-1.85-0.14-4.27-0.85c-9.53-2.84-43.94-11.09-48.78-11.52c-4.69-0.43-5.4-0.43-5.97,1.14c-0.28,0.85-1.28,2.84-1.99,4.12
		c-1,1.85-1.56,6.97-1.99,21.76C258.28,105.98,257.85,111.53,257.57,108.97L257.57,108.97z M33.88,199.41
		c-1.85-14.36-2.56-25.6-3.27-42.52c-0.57-17.78,0.71-47.64,2.13-49.06c0.57-0.57,1.56,0.14,2.84,2.13
		c1.56,2.42,1.85,3.84,1.42,7.96c-2.99,30.29-3.7,53.04-2.13,74.94C35.3,199.27,36.15,216.48,33.88,199.41L33.88,199.41z
		 M487.8,86.07c-9.1-6.11-16.78-11.95-16.78-12.94c-0.14-1.42,1.99-0.57,8.25,3.56c5.55,3.7,17.92,14.36,16.64,14.36
		C495.62,91.19,491.93,88.92,487.8,86.07L487.8,86.07z"/>
	<path id="XMLID_7_" class="st3" d="M235.39,501.03c-49.63-23.61-78.5-41.81-108.79-68.69C82.09,392.96,43.83,335.93,24.63,279.9
		C8.42,232.69,1.88,182.2,4.44,122.76c0.71-16.5,1.42-26.31,2.13-27.3c1.56-2.28,15.07-13.08,26.59-21.05
		c27.87-19.62,61.43-37.26,92.15-48.78c76.79-28.58,160.84-31.14,239.9-7.25c41.95,12.66,95.28,40.81,130.12,68.83
		c4.41,3.56,8.67,6.68,9.53,6.97c2.28,0.85,2.99,13.37,2.99,53.04c0,37.54-0.71,47.07-5.4,74.66c-2.84,16.5-5.26,27.02-11.52,47.64
		c-9.95,33.28-23.04,60.15-45.08,93.29c-36.55,54.75-79.21,92.15-143.2,125.43c-19.34,10.1-44.51,21.76-46.93,21.62
		C254.58,509.71,245.48,505.73,235.39,501.03L235.39,501.03z M273.64,497.76c14.36-6.68,22.75-11.38,25.88-14.22
		c1.28-1.14,7.96-5.55,15.07-9.81c38.82-23.46,64.28-42.95,87.03-66.69c23.61-24.6,41.52-49.06,58.87-80.77
		c28.3-51.48,41.67-111.49,41.95-187.43c0-14.22-0.28-29.15-0.71-33.28c-0.71-7.39-0.85-7.68-3.84-9.39
		C432.2,47.39,376.6,18.1,296.25,6.3c-17.49-2.28-64.85-2.28-82.2,0c-37.4,4.84-69.54,13.08-92.01,23.46
		c-41.38,19.2-53.19,25.6-81.34,44.23c-10.52,6.97-21.62,14.08-24.6,15.93l-5.4,3.27l-0.57,5.97c-1.28,14.22-1.71,55.46-0.71,71.25
		c4.98,75.65,22.9,131.11,60.86,188.42c13.08,19.77,26.17,35.55,43.94,53.33c32.71,32.71,61.72,52.47,120.16,81.77
		c18.91,9.53,21.76,10.67,24.6,10.1C260.56,503.59,266.96,500.89,273.64,497.76L273.64,497.76z M238.66,487.66
		c-26.02-13.65-50.06-29.15-70.11-45.08c-11.38-9.1-31.57-27.59-31.57-28.87c0-0.57,1.71,0.57,3.84,2.28
		c17.21,14.79,42.38,32.28,62.86,43.94c15.07,8.53,49.2,25.88,51.19,25.88c1.85,0,37.26-17.78,51.05-25.6
		c62.43-35.55,106.94-80.92,141.5-144.62c14.79-27.3,26.17-60.58,31.71-92.86c3.84-22.9,6.26-64.14,4.98-86.46
		c-1.14-20.9,4.12-26.45-13.08-39.53c-50.2-36.69-92.58-56.6-149.74-70.39c-8.53-1.99-16.21-4.12-17.35-4.55
		c-3.27-1.28,5.4-1,16.5,0.57C369.2,29.19,408.88,44.12,449.55,71c11.66,7.68,34.13,24.74,37.83,28.58l2.28,2.42v38.82
		c0,42.66-0.57,50.48-5.83,78.92c-8.39,45.36-22.75,85.32-43.52,120.88c-5.55,9.39-20.48,31.57-30.86,45.65
		c-12.37,16.78-44.94,48.78-61.72,60.86c-6.4,4.55-54.75,29.15-75.94,38.68c-6.97,3.13-13.08,6.4-13.65,7.25
		C256.15,495.91,252.31,494.78,238.66,487.66L238.66,487.66z M36.58,183.2l0.43,10.38c1.42,34.98,11.95,76.37,27.73,110.07
		c8.39,17.92,20.76,38.54,35.13,58.45c3.7,5.12,8.82,12.37,11.38,15.93c2.56,3.7,12.37,14.22,21.47,23.61
		c9.24,9.24,15.64,15.93,14.22,14.65c-34.41-30.43-60.01-63.42-79.35-102.53c-20.05-40.67-29.86-73.52-35.27-119.03
		c-1.99-16.92-2.42-83.9-0.43-87.31c3.98-6.97,46.93-35.55,68.69-45.79c8.67-4.12,25.31-10.52,26.88-10.38
		c0.57,0-3.7,2.42-9.53,5.12c-19.91,9.53-36.4,19.48-58.59,35.27c-4.41,3.13-11.52,7.82-15.78,10.38c-4.27,2.56-7.82,5.12-7.82,5.55
		L36.58,183.2L36.58,183.2z M151.06,419.26c-1.14-1.42-1.14-1.42,0.28-0.28c1.42,1.14,1.99,1.85,1.28,1.85
		C152.34,420.83,151.63,420.26,151.06,419.26L151.06,419.26z"/>
	<path id="XMLID_8_" class="st5" d="M238.23,467.04c-62-32-101.11-63.71-134.39-108.79c-30.43-41.1-49.49-84.04-58.73-132.39
		c-4.69-24.46-5.4-34.7-5.4-71.53c0-18.77,0.28-35.55,0.71-37.26c0.57-2.7,1.99-4.12,10.67-10.38c29.44-21.47,51.76-34.27,80.2-46.5
		c40.39-17.35,94-26.59,139.08-23.89c71.67,4.12,127.28,24.74,189.56,70.53c10.67,7.82,11.09,8.25,10.52,10.1c-0.43,1-0.57,1-1.42,0
		c-0.57-0.71-2.84-2.42-4.98-3.98c-2.13-1.56-7.39-5.4-11.66-8.53c-4.27-3.13-9.24-6.54-11.09-7.68c-1.85-1.14-5.55-3.56-8.25-5.26
		c-6.4-4.12-12.23-7.39-31.57-16.92c-24.6-12.09-30.01-14.65-32.85-15.36c-1.42-0.28-6.26-1.85-10.67-3.41
		c-29.72-10.52-66.13-16.35-101.68-16.35c-43.09,0-83.48,7.82-120.73,23.18c-10.24,4.27-33.42,15.78-42.95,21.47
		c-17.49,10.38-43.23,28.44-46.22,32.42c-2.28,2.99-3.13,13.79-3.13,40.24c-0.14,49.63,7.68,91.3,24.89,131.97
		c18.91,44.65,57.74,95.71,98.41,129.12c14.36,11.8,15.64,12.8,20.62,15.93c2.28,1.42,7.25,4.84,11.09,7.39
		c3.84,2.56,7.39,4.69,8.11,4.69s1.14,0.43,1.14,0.85c0,0.43,1.71,1.85,3.84,2.84c9.39,4.84,14.65,7.82,19.2,10.81
		c2.7,1.71,5.55,3.27,6.4,3.27c0.85,0,1.71,0.43,1.99,0.85c0.28,0.43,2.28,1.71,4.27,2.7c1.99,1,4.41,2.13,5.12,2.56
		c0.71,0.43,3.27,1.71,5.55,2.7c2.28,1.14,3.98,2.28,3.7,2.7c-0.28,0.43-0.71,0.85-1.14,0.85
		C255.72,476,247.76,471.88,238.23,467.04L238.23,467.04z M240.79,420.4c-1.28-0.14-6.68-1-11.95-1.85
		c-5.4-0.85-10.81-1.99-12.23-2.7c-1.28-0.71-3.56-1.14-4.84-1.14c-3.41,0-21.76-6.4-30.29-10.52c-0.85-0.43-3.13-1.42-4.98-2.42
		c-1.99-0.85-6.11-3.13-9.24-4.98s-5.83-3.41-6.11-3.41c-0.85,0-10.95-7.54-14.65-10.95c-1.99-1.85-3.98-3.27-4.41-3.27
		s-1.85-1.14-3.27-2.42c-12.23-11.66-17.92-17.35-17.49-17.78c0.28-0.28,3.41,2.42,6.97,5.83c47.92,47.07,120.73,63.57,185.44,41.95
		c38.96-12.94,70.25-37.12,93.43-71.96c31.43-47.21,39.25-103.53,21.47-157.28c-15.07-45.79-49.49-85.18-93.57-107.22
		c-3.13-1.56-5.26-2.84-4.69-2.84c1.56,0,23.04,10.38,23.75,11.52c0.28,0.57,1.14,1,1.99,1c0.71,0,2.84,1.14,4.55,2.42
		c1.71,1.42,4.41,2.99,5.83,3.84c7.25,3.7,32,27.59,41.1,39.53c27.73,36.97,40.1,79.64,36.26,126.56
		c-0.71,8.53-1.71,17.35-2.13,19.48c-0.57,2.13-1.42,5.97-1.99,8.39c-2.13,9.53-9.53,30.15-13.37,37.26
		c-11.23,20.76-18.06,30.72-29.44,42.95c-19.91,21.62-44.08,38.25-69.4,47.78c-25.31,9.67-37.26,11.8-64.85,12.23
		C251.88,420.69,242.07,420.54,240.79,420.4L240.79,420.4z M271.51,389.4c-4.84-11.66-11.95-54.89-11.95-73.09
		c0-6.26,1.42-7.39,4.12-3.27c1.71,2.7,3.84,13.37,3.98,19.34c0,2.28,0.43,5.97,0.85,7.96c0.43,2.13,1.71,10.38,2.7,18.34
		c1.85,14.79,5.26,28.73,7.68,31.43c1.14,1.28,1,1.56-0.71,1.99C273.92,392.96,272.79,392.53,271.51,389.4L271.51,389.4z
		 M230.69,390.82c-0.28-0.43,0.71-0.57,2.13-0.28c1.42,0.14,2.56,0.57,2.56,0.71C235.53,391.96,231.12,391.53,230.69,390.82
		L230.69,390.82z M226,390.11c0.28-0.28,1-0.28,1.71-0.14c0.71,0.28,0.57,0.43-0.57,0.57C226.28,390.68,225.72,390.4,226,390.11
		L226,390.11z M215.05,387.84c-11.66-3.13-19.77-6.11-29.72-10.95c-80.63-38.68-113.2-135.81-72.38-215.59
		c22.18-43.37,62.14-73.81,109.5-83.48c11.52-2.42,16.92-2.13,17.21,0.71c0.28,1.56,0,1.85-1.14,1.42
		c-1.56-0.57-16.92,1.85-22.33,3.7c-1.99,0.71-6.4,2.13-9.81,3.13c-8.67,2.7-27.87,12.23-36.69,18.06
		c-34.56,23.18-57.88,58.02-66.84,100.11c-2.42,11.66-3.41,34.7-1.85,47.78c2.13,17.92,6.97,34.56,14.79,50.34
		c4.55,9.24,7.68,14.22,16.78,27.3c3.7,5.26,18.2,20.19,26.17,26.73c5.4,4.55,18.91,13.94,20.05,13.94c0.57,0,1.71,0.85,2.56,1.85
		c0.85,1,2.13,1.71,2.84,1.71c0.71,0,2.42,0.71,3.7,1.71c1.28,1,3.56,1.99,4.98,2.28c1.42,0.28,2.99,1,3.56,1.28
		c1.14,0.85,11.38,4.55,18.63,6.54c2.99,0.85,6.11,1.85,7.11,2.28C225.72,390.25,222.02,389.83,215.05,387.84L215.05,387.84z
		 M290.13,286.3c-3.13-1.42-12.66-9.81-11.95-10.67c0.28-0.28,1.99,0.71,3.84,2.28c4.84,3.98,10.81,5.4,16.5,3.84
		c9.24-2.42,14.51-9.24,17.92-23.18c1.14-4.41,2.28-8.39,2.56-8.67c0.28-0.43,1.56,0,2.56,0.71c1.85,1.28,1.99,1.99,1.85,7.25
		c-0.14,3.27-0.71,6.83-1.42,8.11c-0.71,1.28-1.14,3.13-1.14,4.27s-0.85,2.42-1.71,2.84c-1,0.57-1.99,2.28-2.28,3.84
		c-0.57,2.99-5.4,7.25-10.67,9.24C302.51,287.86,293.41,287.86,290.13,286.3L290.13,286.3z M142.52,285.87
		c-14.65-0.28-19.06-0.71-20.34-1.71c-1.42-1.28-1.42-1.28,0.14-1.99c0.85-0.28,10.95-0.71,22.18-0.71
		c16.07,0,20.76-0.28,21.62-1.28c0.57-0.71,2.13-6.68,3.41-13.37c1.42-6.68,2.84-12.51,3.41-13.08s3.56-0.85,7.11-0.71l6.11,0.28
		l0.28,2.7c0.28,2.56,0.14,2.7-2.28,2.42c-4.41-0.71-5.97,1-7.54,7.25c-0.85,3.13-1.42,6.54-1.42,7.39c0,2.84-1.71,8.11-3.41,10.1
		C169.4,286.02,164.99,286.3,142.52,285.87L142.52,285.87z M190.59,286.16c-2.7-0.71-5.12-3.13-4.12-4.12
		c0.43-0.43,9.81-0.85,20.76-1c10.95-0.14,20.34-0.43,20.9-0.85c0.57-0.43,1.14-2.13,1.14-3.84c0-3.13,0-3.13-3.27-2.84l-3.27,0.28
		l-0.14-33.28c-0.14-21.76,0.14-32.85,0.71-31.85c0.43,0.85,2.28,5.55,3.84,10.38c2.7,8.11,2.99,9.39,2.13,13.65
		c-0.57,2.7-0.71,11.95-0.43,21.9l0.57,17.21l2.7,2.84c3.56,3.7,3.7,7.82,0.28,9.95c-2.13,1.42-4.84,1.56-21.05,1.71
		C200.83,286.58,191.59,286.44,190.59,286.16L190.59,286.16z M254.87,285.73c-2.28-1.28-1.85-2.56,0.57-2.56
		c1.14,0,2.42-0.43,2.7-0.85c0.28-0.57,1.42-72.53,1.42-90.87c0-1.14,0.85-1.56,3.27-1.85c2.99-0.28,3.41-0.57,3.56-3.13
		c0.28-2.99,0.71-3.41,2.42-2.28c1.14,0.71,2.99,4.12,2.99,5.4c0,0.43-1.42,2.56-3.13,4.55l-3.13,3.7l0.43,25.46
		c0.43,30.01,0.57,25.31-0.28,44.37c-0.57,14.79-0.71,15.5-2.7,17.06C260.84,286.87,257.29,287.15,254.87,285.73L254.87,285.73z
		 M322.84,285.02c-1.56-1-2.84-2.13-2.84-2.7c0-0.57,6.97-0.85,19.91-0.85c21.33,0,22.33-0.14,21.76-4.55
		c-0.14-1.42-1-2.13-2.7-2.28c-1.71-0.14-2.42-0.85-2.42-1.99c0-1.42,1.71-10.52,3.13-16.64c0.43-1.85,1-1.99,7.54-1.99h7.11v3.13
		c0,2.84-0.14,3.13-2.42,2.56c-3.84-0.71-6.26,1.85-7.39,7.82c-0.85,4.69-0.71,5.26,1,7.82c1.71,2.28,1.85,3.13,1.14,5.97
		c-1.28,5.12-2.84,5.55-23.04,5.55C327.25,286.73,325.4,286.58,322.84,285.02L322.84,285.02z M375.89,284.74l-3.13-1.99l2.28-0.71
		c1.28-0.28,7.54-0.71,13.94-0.71c12.51-0.14,12.8-0.14,12.8-4.98c0-2.84,1.14-2.7,3.56,0.14c2.42,3.13,2.28,4.55-0.57,7.54
		c-2.42,2.42-2.42,2.56-13.94,2.42C380.29,286.73,378.73,286.44,375.89,284.74L375.89,284.74z M139.11,273.22
		c-0.28-0.57-0.28-19.34-0.14-41.52l0.28-40.39l3.41-0.28c2.7-0.28,3.56-0.71,4.27-2.56c0.43-1.28,1.28-1.99,1.71-1.71
		c1.71,1,0.85,4.27-1.85,7.25l-2.7,2.99l0.14,26.88c0,14.79,0.43,31.85,0.71,37.97c0.43,7.68,0.28,11.23-0.28,11.8
		C142.95,274.64,139.54,274.35,139.11,273.22L139.11,273.22z M206.38,273.08c-0.43-0.57-2.28-7.82-3.98-16.21
		c-1.85-8.25-5.69-26.17-8.53-39.53c-2.99-13.51-5.55-26.59-5.97-29.15c-0.57-4.55-0.57-4.69,1.14-3.84c1,0.57,2.28,2.13,2.7,3.41
		c1.14,2.99,6.83,25.46,8.96,35.84c3.56,16.64,9.67,41.24,11.66,45.93c0.57,1.56,1,2.99,0.71,3.27
		C212.06,273.79,207.09,274.07,206.38,273.08L206.38,273.08z M339.91,273.22c-0.28-0.57-0.28-19.48-0.14-41.95l0.28-40.81h2.99
		c2.99,0,4.55-1.42,4.55-4.12c0-2.13,2.56-2.7,3.56-0.85c1.71,3.13,1,6.68-1.85,9.39l-2.7,2.56l0.28,37.97
		c0.28,37.26,0.28,37.97-1.56,38.4C342.32,274.64,340.33,274.35,339.91,273.22L339.91,273.22z M393.38,272.79
		c-0.28-0.85-4.27-19.34-8.96-41.1c-8.67-40.39-10.38-49.77-8.53-49.77c1.56,0,4.41,3.56,5.4,6.54c1,2.99,4.12,17.06,5.4,24.32
		c0.43,2.56,1.56,7.68,2.56,11.52c1,3.84,2.28,9.24,2.84,12.23c0.57,2.99,1.71,7.96,2.42,11.09c1.42,5.83,3.41,14.65,4.69,20.48
		c0.43,1.71,1,3.84,1.28,4.69c0.57,1.28,0.14,1.56-2.99,1.56C394.8,274.21,393.66,273.93,393.38,272.79L393.38,272.79z
		 M290.99,272.51c-2.56-1-5.4-4.84-6.54-8.82c-0.57-1.85-1.14-11.38-1.42-21.47c-0.57-19.2,0.57-35.55,2.84-43.23
		c2.28-7.68,7.82-10.81,13.65-7.68c3.27,1.71,6.26,5.97,5.12,7.11c-0.43,0.43-1.14,0-1.56-0.85c-1.14-2.13-5.69-1.99-7.82,0.14
		c-3.98,3.98-5.83,19.77-5.12,45.93c0.57,20.62,0.85,22.75,4.98,26.45c1,1,1.85,1.99,1.85,2.42
		C296.82,273.64,293.41,273.5,290.99,272.51L290.99,272.51z M360.81,244.92c0-2.42,5.83-30.15,6.4-30.15c0.28,0,1.28,4.55,1.99,9.95
		c1.99,13.23,1.85,12.37,0.71,14.65c-1.28,2.28-0.57,4.12,1.28,3.41c0.71-0.28,1.28,0.14,1.28,0.85c0,0.85-0.85,1.28-2.42,1.28
		c-1.28,0-3.98,0.28-5.83,0.57C361.66,245.91,360.81,245.77,360.81,244.92L360.81,244.92z M173.24,244.35
		c-0.14-1.85,5.83-29.58,6.4-29.58c0.28,0,1,3.56,1.71,7.82c0.85,5.97,0.85,8.67,0.14,10.95c-0.57,1.71-1.14,4.98-1.14,7.25
		l-0.14,4.12h-3.41C174.81,244.92,173.24,244.63,173.24,244.35L173.24,244.35z M241.93,209.79c-4.55-11.09-8.53-21.62-8.82-23.32
		l-0.43-2.99l2.7,1.99c1.99,1.42,4.12,5.12,7.82,13.65c2.84,6.4,5.55,11.95,6.11,12.23c0.85,0.57,1.99,13.94,1.42,17.06
		C250.32,229.28,246.48,220.89,241.93,209.79L241.93,209.79z M312.32,216.19c-1-0.71-1.56-1.42-1.28-1.56
		c0.28-0.14,1.28-0.71,2.28-1.28c1.56-0.85,1.85-2.13,2.28-14.79c0.28-7.54,0.71-14.08,1.14-14.51c0.43-0.43,0.71,0.57,0.71,1.99
		c0,3.27,1.42,4.84,4.69,4.84c2.42,0,2.56,0.14,1.99,2.84c-0.28,1.56-0.85,6.4-1.28,10.67c-0.57,5.69-1.28,8.53-2.56,10.24
		C318.15,217.33,314.88,218.04,312.32,216.19L312.32,216.19z M211.78,193.3c-1.42-1.42-1.28-2.42,0.28-2.42
		c0.71,0,1.28,0.85,1.28,1.71C213.34,194.58,213.2,194.72,211.78,193.3L211.78,193.3z M248.18,193.3c-1.56-1.56-1.28-2.42,0.71-2.42
		c1.14,0,1.85,0.57,1.85,1.71C250.6,194.58,249.75,194.86,248.18,193.3L248.18,193.3z M303.93,183.2c-3.41-2.42-2.99-2.7,1.42-1.14
		c1.56,0.57,2.99,1.56,2.99,2.28C308.34,185.9,307.48,185.62,303.93,183.2L303.93,183.2z M257.85,159.74c-1-0.71-1-1-0.14-2.13
		c0.71-0.85,1.56-7.25,2.42-15.64c2.7-31.29,9.39-64.7,13.23-66.13c0.71-0.28,4.55,0.14,8.67,0.85
		c40.53,6.97,74.09,26.88,99.54,59.02c1.71,2.13,3.7,4.98,4.27,6.26l1,2.28l-1.56-2.13c-0.85-1.14-3.41-4.12-5.55-6.68
		c-2.13-2.56-4.84-5.55-5.83-6.83c-4.12-5.26-19.2-17.49-30.15-24.6c-21.9-14.36-61.58-27.59-66.13-22.04
		c-2.13,2.56-5.12,15.07-7.11,29.29c-2.28,16.35-2.7,20.05-3.56,30.72c-1.14,13.79-1.42,14.79-4.12,16.92
		C259.84,160.73,259.56,160.87,257.85,159.74L257.85,159.74z"/>
	<path id="XMLID_58_" class="st6" d="M258.42,235.96l0.28-45.93l3.27-0.28c2.99-0.28,3.41-0.57,3.56-3.13l0.28-2.84l-9.24-0.28
		c-12.09-0.43-12.37-0.28-11.95,3.13c0.28,2.42,0.71,2.84,3.41,3.27l3.13,0.43l0.28,20.76c0.14,11.38-0.14,20.48-0.43,20.34
		c-0.43-0.28-5.12-11.09-10.38-24.03l-9.67-23.61l-11.66,0.28l-11.66,0.28v2.7c0,2.42,0.28,2.7,3.27,2.99l3.27,0.28l-0.28,41.95
		l-0.28,41.95h-3.98h-3.98l-9.24-42.66c-11.09-51.62-10.52-49.06-12.23-49.63c-3.7-1.42-4.12,0.14-12.23,36.97
		c-8.11,37.12-10.38,44.51-15.5,49.91c-3.56,3.84-8.39,5.97-13.51,5.97h-4.55l0.28-41.95l0.28-41.95l3.13-0.43
		c2.7-0.43,3.13-0.71,3.13-3.13v-2.7h-13.79h-13.79l-0.28,2.56c-0.28,2.99,1,4.12,4.55,4.12h2.42v41.81v41.81h-1.99
		c-3.7,0-4.98,1-4.98,3.56c0,1.42,0.28,2.7,0.71,2.99c0.43,0.28,11.38,0.14,24.6-0.14l23.89-0.57l2.7-13.37l2.7-13.37l7.25-0.28
		c6.97-0.28,7.39-0.14,7.68,1.85c1.56,7.39,3.13,16.21,3.13,17.63c0,1.14-0.85,1.71-2.84,1.85c-2.56,0.28-2.84,0.57-2.84,2.99v2.7
		l21.33,0.28c18.49,0.14,21.47,0,22.33-1.14c1.85-2.56,0.43-4.69-3.13-4.98l-3.27-0.28l-0.28-32.85
		c-0.14-18.06,0.14-33.13,0.43-33.56c0.43-0.43,6.83,14.51,14.36,33.28c18.49,46.07,16.5,41.67,19.34,41.38l2.42-0.28L258.42,235.96
		L258.42,235.96z M172.39,245.2c0-2.13,6.68-32.28,7.11-32.28c0.71,0,6.97,31.14,6.4,32.28c-0.14,0.43-3.27,0.71-6.97,0.71
		C175.23,245.91,172.39,245.49,172.39,245.2L172.39,245.2z M299.8,281.32c7.68-2.13,13.37-10.24,16.21-22.75
		c1.71-7.68,1.28-9.1-2.28-9.1c-3.27,0-3.27,0-5.4,8.53c-2.42,9.24-5.26,14.08-9.39,15.5c-5.83,1.99-11.09-0.71-14.08-6.97
		c-1.71-3.84-1.99-5.97-2.28-27.3c-0.43-32.71,1.56-44.65,7.82-47.92c8.25-4.27,15.22,1.71,17.78,15.07
		c1.14,5.83,1.85,6.97,4.27,6.54c1.56-0.28,1.71-1.56,2.13-14.08c0.28-7.54,0.28-14.22,0.14-14.93c-0.71-1.99-4.55-1.28-5.69,1
		l-1,2.13l-4.27-2.7c-3.84-2.42-4.84-2.7-10.1-2.28c-4.69,0.28-6.54,0.85-9.53,2.99c-10.38,7.39-17.63,26.45-17.63,46.5
		c0,23.18,9.1,43.94,21.76,49.49C291.7,282.46,295.25,282.6,299.8,281.32L299.8,281.32z M399.92,280.04
		c1.99-2.42,0.71-4.41-2.99-4.98l-3.56-0.43l-9.95-46.22c-5.55-25.45-9.95-46.36-10.1-46.36c0-0.14-1.14-0.28-2.7-0.28
		c-3.13,0-2.56-1.85-8.39,25.74c-2.28,10.52-6.4,29.72-9.24,42.66l-5.12,23.61l-4.27,0.28l-4.27,0.28l0.28-42.09l0.28-42.09
		l3.13-0.43c2.7-0.43,3.13-0.71,3.13-3.13v-2.7h-13.79h-13.79v2.7c0,2.42,0.28,2.7,3.13,3.13l3.13,0.43v41.81v41.81l-3.13,0.43
		c-2.7,0.43-3.13,0.71-3.41,3.41l-0.28,2.84l21.19-0.28l21.19-0.28l0.28-2.42c0.28-2.13-0.14-2.56-2.42-2.99
		c-1.56-0.28-2.7-0.85-2.7-1.14c0-0.28,1-4.98,1.99-10.38l1.99-9.81l7.25-0.28c6.97-0.28,7.25-0.14,7.68,1.85
		c1.56,7.54,3.13,16.21,3.13,17.63c0,1.14-0.57,1.71-2.13,1.71c-1.28,0-2.56,0.71-3.13,1.71c-1.14,2.28-1.14,2.28,0.43,3.98
		C374.89,282.03,398.21,282.03,399.92,280.04L399.92,280.04z M360.1,243.78c0.28-1.14,1.71-8.53,3.27-16.5
		c1.56-7.96,3.27-14.51,3.56-14.51c0.43,0,1.99,6.97,3.56,15.36c1.56,8.39,3.13,15.78,3.27,16.5c0.28,0.85-1.42,1.14-6.83,1.14
		C359.96,245.91,359.67,245.77,360.1,243.78L360.1,243.78z"/>
	<path id="XMLID_64_" class="st3" d="M399.78,129.87c3.27,5.55,4.12,7.39,8.96,18.2c2.56,5.69,5.55,12.37,6.68,14.93
		c1.14,2.56,2.13,4.84,2.13,5.12c0,0.28,1.71,4.27,3.7,8.96c4.69,10.81,6.83,21.19,7.96,38.68c1.56,23.46-1.14,47.92-7.25,67.41
		c-2.7,8.67-9.24,23.75-9.95,23.04c-0.14-0.14,1.42-5.26,3.56-11.23c7.96-21.9,11.09-38.82,11.09-60.58c0-22.9-2.56-40.1-8.53-58.45
		c-4.27-13.08-11.09-26.31-22.18-42.52C377.45,104.28,378.3,100.01,399.78,129.87L399.78,129.87z"/>
</g>
</svg>
