<svg width="300" height="50" viewBox="0 0 300 50" fill="none" xmlns="http://www.w3.org/2000/svg">
<path d="M126.159 35.3292C125.945 34.5183 125.602 33.6919 125.129 32.8505C124.656 32.009 123.969 31.2544 123.069 30.5874C122.168 29.9204 121.088 29.3149 119.827 28.7709C118.566 28.227 116.99 27.8113 115.1 27.524C113.208 27.2364 111.093 27.0928 108.751 27.0928H41.8848V50.0002H108.785C111.599 50.0002 114.087 49.764 116.248 49.2915C118.409 48.821 120.12 48.2247 121.381 47.5063C122.641 46.788 123.671 45.9167 124.47 44.8886C125.269 43.8624 125.804 42.873 126.074 41.9185C126.344 40.9639 126.479 39.9416 126.479 38.8554V37.9299C126.479 37.0063 126.372 36.1408 126.159 35.3292ZM118.24 38.5785C118.24 42.5187 114.874 44.4897 108.143 44.4897H49.7521V32.5118H108.143C114.874 32.5118 118.24 34.472 118.24 38.3926V38.5785Z" fill="#EFEDE9"/>
<path d="M162.019 40.5436C161.233 39.6956 160.209 39.0915 158.943 38.7313C161.716 37.8329 163.103 36.2046 163.103 33.8459V33.4865C163.103 29.6298 159.856 27.7021 153.365 27.7021H135.277V50H142.302V42.0887H151.467C153.175 42.0887 154.379 42.3985 155.083 43.0181C155.787 43.6357 156.138 44.6348 156.138 46.0134V50H163.194V43.8564C163.194 42.4972 162.802 41.3936 162.019 40.5436ZM155.778 34.9548C155.778 35.614 155.545 36.1446 155.083 36.5434C154.622 36.9423 153.908 37.1436 152.944 37.1436H142.302V32.7671H152.944C153.908 32.7671 154.622 32.9671 155.083 33.3667C155.545 33.7663 155.778 34.2858 155.778 34.9248V34.9548Z" fill="#EFEDE9"/>
<path d="M180.21 27.3672H172.477V49.9803H180.21V27.3672Z" fill="#EFEDE9"/>
<path d="M210.174 49.7189L221.996 27.3457H214.048L205.608 43.7961L201.99 37.2226L199.335 32.8387L193.373 37.1781L194.748 39.3292L200.649 49.7189H210.174Z" fill="url(#paint0_linear_2841_25420)"/>
<path d="M144.354 17.8217C115.167 20.047 90.3014 14.1239 90.3014 14.1239C113.692 17.2109 135.746 14.1239 135.746 14.1239C124.008 6.77853 112.105 4.38585 101.867 4.23526L105.507 13.2622L98.2967 4.26872C83.4187 4.78742 72.8273 9.73173 72.8273 9.73173C81.435 11.8149 85.7388 17.2946 85.7388 17.2946C73.638 8.435 41.9069 14.1323 41.9069 14.1323L38.9486 20.9589L34.9121 10.5181C49.4365 12.869 64.2196 7.64859 64.2196 7.64859C125.258 -12.4382 143.819 13.3877 143.819 13.3877C163.526 11.754 174.927 15.1967 185.55 20.6854C190.263 23.1201 194.181 25.9216 198.943 32.2704C199.711 33.2948 201.644 36.6449 201.644 36.6449L194.748 39.3291C193.102 36.1402 187.567 30.182 183.838 27.5752C181.298 25.7994 177.713 23.7608 173.7 22.1538C168.635 20.125 164.834 19.1555 162.88 18.7831C152.881 16.8761 144.354 17.8217 144.354 17.8217Z" fill="url(#paint1_linear_2841_25420)"/>
<path d="M229.779 27.2627V49.9805H256.255V44.6986H237.447V40.9733H255.487V35.7824H237.447V32.4232H255.922V27.2627H229.779Z" fill="#EFEDE9"/>
<path d="M2.78802 43.3956H4.26367V37.0197H7.04993V35.6992H0.00195312V37.0197H2.78802V43.3956Z" fill="#EFEDE9"/>
<path d="M10.6289 43.3956H12.0937V40.2067H16.0581V43.3956H17.5338V35.6992H16.0581V38.8881H12.0937V35.6992H10.6289V43.3956Z" fill="#EFEDE9"/>
<path d="M21.666 43.3956H27.6896V42.0771H23.1306V40.1738H27.4695V38.9211H23.1306V37.0197H27.6896V35.6992H21.666V43.3956Z" fill="#EFEDE9"/>
<path d="M271.508 43.3585H272.974V40.1696H276.938V43.3585H278.414V35.6621H276.938V38.851H272.974V35.6621H271.508V43.3585Z" fill="#EFEDE9"/>
<path d="M282.322 40.0941C282.322 42.0167 283.864 43.5792 285.846 43.5792C287.84 43.5792 289.37 42.0167 289.37 40.0941V35.6621H287.906V40.0941C287.906 41.2151 287.058 42.1929 285.846 42.1929C284.636 42.1929 283.798 41.2151 283.798 40.0941V35.6621H282.322V40.0941Z" fill="#EFEDE9"/>
<path d="M293.293 43.3585H297.829C299.03 43.3585 299.999 42.3904 299.999 41.1919C299.999 40.4445 299.625 39.852 299.051 39.5113C299.625 39.1705 299.999 38.5761 299.999 37.8287C299.999 36.6302 299.03 35.6621 297.829 35.6621H293.293V43.3585ZM294.757 42.04V40.1367H297.608C298.17 40.1367 298.611 40.5549 298.611 41.0932C298.611 41.6217 298.17 42.04 297.608 42.04H294.757ZM297.608 36.9826C298.17 36.9826 298.611 37.3989 298.611 37.9275C298.611 38.4657 298.17 38.884 297.608 38.884H294.757V36.9826H297.608Z" fill="#EFEDE9"/>
<defs>
<linearGradient id="paint0_linear_2841_25420" x1="72.8257" y1="9.73111" x2="200.613" y2="49.8382" gradientUnits="userSpaceOnUse">
<stop stop-color="#5B787C"/>
<stop offset="1" stop-color="#89B4BB"/>
</linearGradient>
<linearGradient id="paint1_linear_2841_25420" x1="72.8273" y1="9.73173" x2="200.614" y2="49.8388" gradientUnits="userSpaceOnUse">
<stop stop-color="#5B787C"/>
<stop offset="1" stop-color="#89B4BB"/>
</linearGradient>
</defs>
</svg>
