<svg width="17" height="16" viewBox="0 0 17 16" fill="none" xmlns="http://www.w3.org/2000/svg">
<path d="M8.49999 1.33337C4.81999 1.33337 1.83333 4.32004 1.83333 8.00004C1.83333 11.68 4.81999 14.6667 8.49999 14.6667C12.18 14.6667 15.1667 11.68 15.1667 8.00004C15.1667 4.32004 12.1867 1.33337 8.49999 1.33337Z" fill="#263337"/>
<rect x="3.16667" y="2.66663" width="10.6667" height="10.6667" rx="5.33333" fill="#EFEEEB"/>
<path d="M8.5 4C6.292 4 4.5 5.792 4.5 8C4.5 10.208 6.292 12 8.5 12C10.708 12 12.5 10.208 12.5 8C12.5 5.792 10.712 4 8.5 4Z" fill="#263337"/>
<rect x="5.83333" y="5.33337" width="5.33333" height="5.33333" rx="2.66667" fill="#EFEEEB"/>
<rect x="7.83333" y="11.3334" width="1.33333" height="2.66667" fill="#263337"/>
<rect x="11.8333" y="7.33337" width="2.66667" height="1.33333" fill="#263337"/>
<rect x="2.5" y="7.33337" width="2.66667" height="1.33333" fill="#263337"/>
</svg>
