<svg width="16" height="16" viewBox="0 0 16 16" fill="none" xmlns="http://www.w3.org/2000/svg">
<path d="M14.8933 6.22004L13.56 5.55337C13.3133 5.43337 13.0067 5.52671 12.8867 5.77337C12.76 6.02671 12.86 6.32671 13.1067 6.44671L14.1667 6.97337V10.1667L11.6667 10.1734V3.33337C11.6667 2.00004 10.7733 1.33337 9.66667 1.33337H4.33334C3.22667 1.33337 2.33334 2.00004 2.33334 3.33337V14.1667H1.33334C1.06 14.1667 0.833336 14.3934 0.833336 14.6667C0.833336 14.94 1.06 15.1667 1.33334 15.1667H12.6667C12.94 15.1667 13.1667 14.94 13.1667 14.6667C13.1667 14.3934 12.94 14.1667 12.6667 14.1667H11.6667V11.1734L14.6667 11.1667C14.9467 11.1667 15.1667 10.94 15.1667 10.6667V6.66671C15.1667 6.48004 15.06 6.30671 14.8933 6.22004ZM4 4.59337C4 3.66671 4.56667 3.33337 5.26 3.33337H8.74667C9.43334 3.33337 10 3.66671 10 4.59337V5.41337C10 6.33337 9.43334 6.66671 8.74 6.66671H5.26C4.56667 6.66671 4 6.33337 4 5.40671V4.59337ZM4.33334 8.16671H6.33334C6.60667 8.16671 6.83334 8.39337 6.83334 8.66671C6.83334 8.94004 6.60667 9.16671 6.33334 9.16671H4.33334C4.06 9.16671 3.83334 8.94004 3.83334 8.66671C3.83334 8.39337 4.06 8.16671 4.33334 8.16671Z" fill="#263337"/>
</svg>
