<svg width="16" height="16" viewBox="0 0 16 16" fill="none" xmlns="http://www.w3.org/2000/svg">
<path d="M6.00001 1.33337C4.25334 1.33337 2.83334 2.75337 2.83334 4.50004C2.83334 6.21337 4.17334 7.60004 5.92001 7.66004C5.97334 7.65337 6.02668 7.65337 6.06668 7.66004C6.08001 7.66004 6.08668 7.66004 6.10001 7.66004C6.10668 7.66004 6.10668 7.66004 6.11334 7.66004C7.82001 7.60004 9.16001 6.21337 9.16668 4.50004C9.16668 2.75337 7.74668 1.33337 6.00001 1.33337Z" fill="#263337"/>
<path d="M9.38667 9.4333C7.52667 8.1933 4.49334 8.1933 2.62 9.4333C1.77334 9.99996 1.30667 10.7666 1.30667 11.5866C1.30667 12.4066 1.77334 13.1666 2.61334 13.7266C3.54667 14.3533 4.77334 14.6666 6 14.6666C7.22667 14.6666 8.45334 14.3533 9.38667 13.7266C10.2267 13.16 10.6933 12.4 10.6933 11.5733C10.6867 10.7533 10.2267 9.9933 9.38667 9.4333Z" fill="#263337"/>
<path d="M13.3267 4.89332C13.4333 6.18665 12.5133 7.31999 11.24 7.47332C11.2333 7.47332 11.2333 7.47332 11.2267 7.47332H11.2067C11.1667 7.47332 11.1267 7.47332 11.0933 7.48665C10.4467 7.51998 9.85334 7.31332 9.40668 6.93332C10.0933 6.31998 10.4867 5.39999 10.4067 4.39999C10.36 3.85998 10.1733 3.36665 9.89334 2.94665C10.1467 2.81999 10.44 2.73999 10.74 2.71332C12.0467 2.59999 13.2133 3.57332 13.3267 4.89332Z" fill="#263337"/>
<path d="M14.66 11.0601C14.6067 11.7067 14.1933 12.2667 13.5 12.6467C12.8333 13.0134 11.9933 13.1867 11.16 13.1667C11.64 12.7334 11.92 12.1934 11.9733 11.6201C12.04 10.7934 11.6467 10.0001 10.86 9.36673C10.4133 9.01339 9.89333 8.73339 9.32666 8.52673C10.8 8.10006 12.6533 8.38673 13.7933 9.30673C14.4067 9.80006 14.72 10.4201 14.66 11.0601Z" fill="#263337"/>
</svg>
