<svg width="16" height="17" viewBox="0 0 16 17" fill="none" xmlns="http://www.w3.org/2000/svg">
<path d="M7 10.8736L4.5 8.37313L5.2065 7.66663L7 9.45963L10.7925 5.66663L11.5 6.37413L7 10.8736Z" fill="#59787C"/>
<path d="M8 1.16663C6.61553 1.16663 5.26216 1.57717 4.11101 2.34634C2.95987 3.11551 2.06266 4.20876 1.53285 5.48784C1.00303 6.76692 0.86441 8.17439 1.13451 9.53226C1.4046 10.8901 2.07129 12.1374 3.05026 13.1164C4.02922 14.0953 5.2765 14.762 6.63437 15.0321C7.99224 15.3022 9.3997 15.1636 10.6788 14.6338C11.9579 14.104 13.0511 13.2068 13.8203 12.0556C14.5895 10.9045 15 9.5511 15 8.16663C15 6.31011 14.2625 4.52963 12.9497 3.21688C11.637 1.90412 9.85652 1.16663 8 1.16663ZM8 14.1666C6.81332 14.1666 5.65328 13.8147 4.66658 13.1554C3.67989 12.4962 2.91085 11.5591 2.45673 10.4627C2.0026 9.36637 1.88378 8.15997 2.11529 6.99608C2.3468 5.8322 2.91825 4.7631 3.75736 3.92399C4.59648 3.08487 5.66558 2.51343 6.82946 2.28191C7.99335 2.0504 9.19975 2.16922 10.2961 2.62335C11.3925 3.07747 12.3295 3.84651 12.9888 4.8332C13.6481 5.8199 14 6.97994 14 8.16663C14 9.75793 13.3679 11.284 12.2426 12.4093C11.1174 13.5345 9.5913 14.1666 8 14.1666Z" fill="#59787C"/>
</svg>
