<?xml version="1.0" encoding="utf-8"?>
<!-- Generator: Adobe Illustrator 27.0.0, SVG Export Plug-In . SVG Version: 6.00 Build 0)  -->
<svg version="1.1" id="Layer_1" xmlns="http://www.w3.org/2000/svg" xmlns:xlink="http://www.w3.org/1999/xlink" x="0px" y="0px"
	 viewBox="0 0 512 512" style="enable-background:new 0 0 512 512;" xml:space="preserve">
<style type="text/css">
	.st0{fill:url(#ellipse106_00000176013008080168915870000006217961784814659971_);}
	.st1{fill:url(#ellipse108_00000000939586099286248980000017028391100594034106_);}
	.st2{fill-opacity:0.502;}
	.st3{fill:url(#path112_00000108300782608749865980000015628092589970736316_);}
	.st4{fill:#B3B3B3;}
	.st5{fill:#666666;}
	.st6{fill:#B2B2B2;}
	.st7{fill:#D9D9D9;}
	.st8{fill:#F9F9F9;}
	.st9{fill:url(#path3243_00000116209592232191414670000005324336084166946720_);}
	.st10{fill:#808080;}
</style>
<g id="XMLID_1_">
	
		<radialGradient id="ellipse106_00000173162291998774893890000003921602761670102682_" cx="122.8864" cy="347.5177" r="460.6034" gradientTransform="matrix(1 0 0 -1 0 464)" gradientUnits="userSpaceOnUse">
		<stop  offset="0" style="stop-color:#365FA4"/>
		<stop  offset="1" style="stop-color:#15224E"/>
	</radialGradient>
	
		<ellipse id="ellipse106" style="fill:url(#ellipse106_00000173162291998774893890000003921602761670102682_);" cx="256" cy="256" rx="246.76" ry="246.76"/>
	
		<radialGradient id="ellipse108_00000105401056751578836770000004318499883938962875_" cx="-29.0474" cy="272.1693" r="179.5098" gradientTransform="matrix(0.7071 0.7071 0.7071 -0.7072 14.4924 404.5603)" gradientUnits="userSpaceOnUse">
		<stop  offset="0" style="stop-color:#98B5DD"/>
		<stop  offset="1" style="stop-color:#1C3F79"/>
	</radialGradient>
	
		<ellipse id="ellipse108" style="fill:url(#ellipse108_00000105401056751578836770000004318499883938962875_);" cx="256" cy="256" rx="200.39" ry="200.39"/>
	<path id="path110" class="st2" d="M55.75,265.53c0-113.92,92.44-206.22,206.22-206.22c113.92,0,206.22,92.44,206.22,206.22
		s-92.44,206.22-206.22,206.22S55.75,379.45,55.75,265.53z M311.75,430.08l-10.52-23.61L262.4,326.4l-38.68,79.64l-10.67,24.18
		c15.5,4.69,32,7.11,49.07,7.11C279.32,437.33,295.96,434.77,311.75,430.08L311.75,430.08z M188.59,420.84L97.28,216.46
		c-4.55,15.5-7.11,32-7.11,49.07C90.17,334.08,130.42,393.39,188.59,420.84z M433.92,265.53c0-16.5-2.28-32.57-6.68-47.64
		l-90.31,202.38C394.24,392.53,433.92,333.65,433.92,265.53L433.92,265.53z M324.84,349.72l76.52-184.75
		c-13.23-18.2-29.87-33.85-49.21-45.8l-63,137.96h-53.76L172.23,118.9c-19.2,11.8-35.84,27.16-49.07,45.23l76.8,185.32l34.99-78.22
		h0.43l0,0h0.14l53.62-0.28l-0.28,0.71h0.71L324.84,349.72z M262.4,201.24l47.64-100.69c-15.22-4.41-31.29-6.83-48.07-6.83
		c-16.5,0-32.28,2.28-47.36,6.68L262.4,201.24L262.4,201.24z"/>
	<g id="XMLID_2_">
		
			<linearGradient id="path112_00000119825109246959922510000017108616300537357230_" gradientUnits="userSpaceOnUse" x1="65.505" y1="29.0643" x2="268.8216" y2="-307.0417" gradientTransform="matrix(0.9631 0 0 -1 87.751 99.045)">
			<stop  offset="0" style="stop-color:#000000"/>
			<stop  offset="1" style="stop-color:#FFFFFF"/>
		</linearGradient>
		<path id="path112_1_" style="fill:url(#path112_00000119825109246959922510000017108616300537357230_);" d="M57.32,250.45
			c0-113.92,89.03-206.22,198.68-206.22s198.68,92.44,198.68,206.22c0,113.92-89.03,206.22-198.68,206.22S57.32,364.37,57.32,250.45
			z M303.93,415l-10.1-23.61l-37.4-80.07l-37.26,79.64l-10.24,24.18c14.93,4.69,30.86,7.11,47.22,7.11
			C272.64,422.26,288.71,419.7,303.93,415L303.93,415z M185.32,405.76L97.42,201.39c-4.41,15.5-6.83,32-6.83,49.07
			C90.45,319,129.28,378.31,185.32,405.76L185.32,405.76z M421.55,250.45c0-16.5-2.28-32.57-6.4-47.64l-87.04,202.38
			C383.29,377.46,421.55,318.58,421.55,250.45L421.55,250.45z M319.43,332.09l69.69-166.83c-12.66-18.2-29.87-40.96-48.5-52.91
			l-58.45,129.71H230.4l-60.73-138.24c-18.49,11.8-34.56,27.16-47.22,45.23l73.96,185.32l33.28-70.26c4.27,1.85,7.25-1.42,7.25-1.42
			s30.72,0,49.07-0.28L319.43,332.09z M256.28,186.17l45.94-100.69c-14.65-4.41-30.15-6.83-46.22-6.83
			c-15.79,0-31.15,2.28-45.65,6.68L256.28,186.17z"/>
		<path id="XMLID_3_" d="M256,456.96c-26.88,0-52.91-5.4-77.37-16.21c-23.61-10.38-44.94-25.32-63.15-44.23
			c-18.2-18.92-32.57-41.1-42.67-65.56c-10.38-25.46-15.64-52.48-15.64-80.36s5.26-54.9,15.64-80.36
			c9.96-24.6,24.32-46.65,42.67-65.71c18.2-18.92,39.54-33.85,63.15-44.23c24.46-10.81,50.49-16.21,77.37-16.21
			s52.91,5.4,77.37,16.21c23.61,10.38,44.94,25.32,63.29,44.23c18.2,18.92,32.57,41.1,42.67,65.71
			c10.38,25.46,15.64,52.48,15.64,80.36s-5.26,54.9-15.64,80.36c-9.96,24.6-24.32,46.65-42.67,65.56
			c-18.2,18.92-39.54,33.85-63.29,44.23C308.91,451.41,282.88,456.96,256,456.96z M256,44.37c-109.37,0-198.4,92.44-198.4,206.08
			S146.63,456.53,256,456.53s198.4-92.44,198.4-206.08S365.37,44.37,256,44.37z M256,422.54c-16.07,0-32-2.42-47.36-7.11l-0.28-0.14
			l10.38-24.32l37.55-80.21l0.14,0.43l37.4,80.07l10.24,23.89l-0.28,0.14C288.43,420.12,272.36,422.54,256,422.54z M209.07,415
			c15.22,4.69,31,6.97,46.93,6.97c16.21,0,32.14-2.42,47.5-7.25l-9.96-23.47l-37.26-79.64l-36.98,79.5L209.07,415z M185.74,406.33
			l-0.57-0.28c-28.02-13.8-51.63-35.27-68.41-62.44c-17.21-27.73-26.45-60.02-26.45-93.16c0-16.64,2.28-33.28,6.83-49.07l0.14-0.57
			l0.28,0.57L185.74,406.33z M97.42,202.1c-4.41,15.64-6.68,31.86-6.68,48.36c0,65.71,36.84,126.44,94.01,154.88L97.42,202.1z
			 M327.54,405.76l0.28-0.57l87.32-202.95l0.14,0.57c4.27,15.5,6.4,31.57,6.4,47.79c0,33-8.96,65-26.03,92.59
			c-16.64,26.88-39.96,48.5-67.56,62.29L327.54,405.76z M415,203.52l-86.47,201.24c56.46-28.59,92.87-89.03,92.87-154.31
			C421.26,234.52,419.13,218.74,415,203.52z M196.41,334.93l-74.24-185.88l0.14-0.14c12.8-18.2,28.73-33.42,47.36-45.23l0.28-0.14
			l60.87,138.38h51.48l58.45-129.71l0.28,0.14c18.63,11.95,35.7,34.56,48.5,52.91l0.14,0.14v0.14L319.86,332.8l-0.28-0.43
			l-33.71-69.83c-17.64,0.28-46.93,0.28-48.92,0.28c-0.71,0.71-3.41,2.99-7.25,1.42L196.41,334.93z M122.74,149.05l73.67,184.6
			l33.14-69.97l0.14,0.14c3.7,1.71,6.4-0.85,6.97-1.28l0.14-0.14h0.14c0.28,0,31,0,49.07-0.28h0.14v0.14l33.14,69.26l69.4-166.12
			c-12.66-18.2-29.58-40.68-48.07-52.62l-58.31,129.56h-52.05v-0.14l-60.59-137.96C151.18,115.91,135.4,130.99,122.74,149.05z
			 M256.28,186.74L209.92,85.19l0.28-0.14c14.79-4.41,30.15-6.68,45.65-6.68c15.79,0,31.29,2.28,46.36,6.83l0.28,0.14l-0.14,0.28
			L256.28,186.74z M210.63,85.48l45.65,100.12l45.65-99.98c-14.79-4.41-30.29-6.68-45.94-6.68
			C240.64,78.93,225.42,81.07,210.63,85.48z"/>
	</g>
	<g id="XMLID_4_">
		<path id="path3217_1_" class="st4" d="M185.88,89.46c-13.37,5.83-11.24,5.83-18.35,29.72c22.61,49.49,39.11,85.76,61.72,135.4
			c20.34,0,40.11-1,60.44-1c22.61-49.35,38.26-84.2,60.73-133.55c1,1.99-8.11-20.48-8.25-22.04
			c-15.64,32.85-67.41,67.27-82.92,100.12c-15.5-32.85-39.96-77.8-55.47-110.65C199.82,88.89,189.58,87.75,185.88,89.46
			L185.88,89.46z"/>
		<path id="XMLID_5_" class="st5" d="M229.12,254.86h-0.14l-0.14-0.14c-11.24-24.75-21.05-46.22-30.86-67.7s-19.63-42.95-30.86-67.7
			v-0.14v-0.14c1.14-3.7,1.99-6.83,2.7-9.53c4.12-14.65,4.41-15.5,15.79-20.48c1.99-0.85,5.55-1,8.96-1.14
			c3.41-0.14,6.97-0.28,8.82-1.14l0.28-0.14l0.14,0.28c7.82,16.36,17.92,36.12,27.73,55.18c9.67,18.92,19.77,38.54,27.59,54.9
			c7.96-16.36,24.89-33.28,41.39-49.64c16.5-16.5,33.56-33.56,41.39-49.78l0.43-0.85l0.14,1c0.14,0.85,3.56,9.67,5.69,15.36
			c1.71,4.27,2.28,5.97,2.42,6.54l0,0c0,0,0,0,0,0.14l0,0c0.14,0.28,0,0.43-0.14,0.43l0,0c-11.24,24.6-20.91,45.94-30.29,66.56
			c-9.39,20.76-19.06,42.1-30.44,66.84l-0.14,0.14h-0.14c-10.1,0-20.34,0.28-30.15,0.57C249.6,254.58,239.36,254.86,229.12,254.86z
			 M167.68,119.18c11.24,24.75,21.05,46.08,30.86,67.56c9.81,21.48,19.48,42.81,30.86,67.56c10.1,0,20.2-0.28,30.01-0.57
			c9.81-0.28,19.91-0.57,30.01-0.57c11.24-24.6,20.91-45.94,30.29-66.7c9.39-20.62,19.06-42.1,30.29-66.7
			c-0.28-0.85-1.42-3.56-2.42-6.54c-2.56-6.83-4.84-12.66-5.55-14.79c-7.96,16.21-24.75,33-41.1,49.35
			c-16.64,16.5-33.71,33.71-41.53,50.06l-0.28,0.57l-0.28-0.57c-7.82-16.5-17.92-36.27-27.73-55.47
			c-9.67-19.06-19.77-38.68-27.59-55.04c-1.99,0.71-5.4,0.85-8.68,1.14c-3.41,0.14-6.97,0.28-8.82,1.14l0,0
			c-11.24,4.98-11.38,5.55-15.5,20.05C169.67,112.5,168.82,115.48,167.68,119.18z"/>
	</g>
	<path id="path117" class="st6" d="M0.43,256C0.43,114.92,114.92,0.43,256,0.43S511.57,114.92,511.57,256S397.08,511.57,256,511.57
		S0.43,397.08,0.43,256z M499.06,256c0-134.12-108.8-243.06-242.92-243.06S13.08,121.74,13.08,256
		c0,134.12,108.8,242.92,243.06,242.92C390.12,498.92,499.06,390.12,499.06,256L499.06,256z"/>
	<g id="XMLID_6_">
		<path id="path119_1_" class="st7" d="M1.85,256C1.85,115.77,115.77,1.85,256,1.85S510.15,115.77,510.15,256
			S396.23,510.15,256,510.15S1.85,396.23,1.85,256L1.85,256z M500.34,256c0-134.83-109.51-244.34-244.34-244.34
			S11.66,121.17,11.66,256S121.17,500.34,256,500.34S500.34,390.83,500.34,256L500.34,256z"/>
		<path id="XMLID_7_" d="M256,512C114.77,512,0,397.23,0,256S114.77,0,256,0s256,114.77,256,256S397.23,512,256,512z M256,3.7
			C116.91,3.7,3.7,116.91,3.7,256S116.91,508.3,256,508.3S508.3,395.09,508.3,256S395.09,3.7,256,3.7z M256,502.19
			C120.18,502.19,9.81,391.68,9.81,256C9.81,120.18,120.32,9.81,256,9.81c135.82,0,246.19,110.51,246.19,246.19
			C502.19,391.82,391.82,502.19,256,502.19z M256,13.51C122.31,13.51,13.51,122.31,13.51,256S122.31,498.49,256,498.49
			S498.49,389.69,498.49,256S389.69,13.51,256,13.51z"/>
	</g>
	<g id="XMLID_8_">
		<path id="path3223_1_" class="st8" d="M104.82,158.01c-6.68,15.22-7.82,9.96-12.94,25.74c31.15,68.41,60.59,137.67,92.73,205.65
			c7.4,2.28,13.65,6.97,21.33,8.53c16.92-36.27,36.12-65.71,53.62-101.55c17.49,35.84,33.28,65.14,50.63,100.98
			c12.23-1.99,26.03-8.39,28.3-21.76c28.59-63.86,46.65-145.21,75.38-208.92l-25.03-1c-25.88,63-45.65,98.13-71.54,161.14
			c0.85,59.73,7.68,76.52-5.55,48.78c-1.71,0.57-67.98-113.07-68.55-113.07h-15.22c0,0-19.06,35.56-31.29,63.43
			c-26.31-63.43-43.52-103.11-69.83-166.4C115.06,158.86,105.53,156.3,104.82,158.01L104.82,158.01z"/>
	</g>
	<g id="XMLID_9_">
		
			<linearGradient id="path3243_00000041281015884730746290000000355623625992110519_" gradientUnits="userSpaceOnUse" x1="65.1359" y1="12.7929" x2="102.201" y2="-224.2438" gradientTransform="matrix(1 0 0 -1 181.8955 211.4375)">
			<stop  offset="0" style="stop-color:#FFFFFF"/>
			<stop  offset="1" style="stop-color:#9E9F9C"/>
		</linearGradient>
		<path id="path3243_1_" style="fill:url(#path3243_00000041281015884730746290000000355623625992110519_);" d="M44.66,256
			c0-116.62,94.72-211.34,211.34-211.34S467.34,139.38,467.34,256S372.62,467.34,256,467.34S44.66,372.62,44.66,256z M306.92,424.53
			l-10.67-24.18l-39.82-81.92l-39.68,81.64l-10.95,24.75c15.93,4.69,32.85,7.25,50.2,7.25
			C273.64,432.07,290.84,429.37,306.92,424.53L306.92,424.53z M180.76,415.15L87.32,205.8c-4.69,15.93-7.25,32.71-7.25,50.2
			C79.93,326.26,121.17,386.99,180.76,415.15z M432.07,256c0-16.92-2.42-33.28-6.83-48.78l-92.59,207.36
			C391.4,385.99,432.07,325.69,432.07,256L432.07,256z M318.86,357.97l86.47-191.72c-13.51-18.77-42.67-55.61-62.44-67.84
			l-68.41,155.16h-31.72L174.22,95.57c-19.63,12.09-53.05,43.38-66.7,61.87l89.6,203.8c15.08-32.14,31-66.56,45.94-98.7
			c0-0.43,29.72,0.57,27.45-0.14L318.86,357.97z M256.43,190.15l48.78-103.11c-15.64-4.55-32.14-6.97-49.21-6.97
			c-16.78,0-33.14,2.42-48.5,6.83L256.43,190.15z"/>
		<path id="XMLID_10_" class="st10" d="M256,467.34c-28.59,0-56.18-5.55-82.2-16.64c-25.17-10.67-47.79-25.88-67.27-45.37
			c-19.48-19.48-34.7-42.1-45.37-67.13c-11.09-26.03-16.64-53.76-16.64-82.2c0-28.59,5.55-56.18,16.64-82.2
			c10.67-25.17,25.88-47.79,45.37-67.27s42.1-34.7,67.27-45.37c26.03-11.09,53.76-16.64,82.2-16.64c28.59,0,56.18,5.55,82.2,16.64
			c25.17,10.67,47.79,25.88,67.13,45.37c19.48,19.48,34.7,42.1,45.37,67.27c11.09,26.03,16.64,53.76,16.64,82.2
			c0,28.59-5.55,56.18-16.64,82.2c-10.67,25.17-25.88,47.79-45.37,67.13c-19.48,19.48-42.1,34.7-67.13,45.37
			C312.18,461.8,284.59,467.34,256,467.34z M256,44.8C139.52,44.8,44.8,139.52,44.8,256S139.52,467.2,256,467.2
			S467.2,372.48,467.2,256S372.48,44.8,256,44.8z M256,432.21c-17.07,0-33.99-2.42-50.35-7.25h-0.14v-0.14l10.95-24.75l39.82-81.92
			l0.14,0.14l39.82,81.92l10.81,24.32h-0.14C290.56,429.65,273.35,432.21,256,432.21z M205.94,424.68c16.21,4.84,33,7.25,50.06,7.25
			c17.21,0,34.42-2.56,50.77-7.4l-10.67-24.04l-39.68-81.92l-39.54,81.49L205.94,424.68z M180.91,415.43l-0.28-0.14
			c-29.72-14.08-54.9-36.12-72.82-63.86C89.46,322.99,79.79,289.99,79.79,256c0-17.07,2.42-33.99,7.25-50.2l0.14-0.28l0.14,0.28
			L180.91,415.43z M87.32,206.08c-4.84,16.07-7.25,32.85-7.25,49.92c0,67.56,39.4,129.85,100.41,158.86L87.32,206.08z
			 M332.37,414.72l0.14-0.28l92.73-207.64l0.14,0.28c4.55,15.79,6.83,32.28,6.83,48.92c0,33.71-9.53,66.56-27.73,94.72
			c-17.64,27.59-42.52,49.64-71.82,63.86L332.37,414.72z M425.1,207.5l-92.3,206.79c60.16-29.3,99.13-91.45,99.13-158.29
			C431.93,239.5,429.65,223.29,425.1,207.5z M197.26,361.67l-0.14-0.28l-89.6-203.8l0,0c13.94-18.92,47.5-50.2,66.7-61.87h0.14v0.14
			l68.55,157.87h31.57L342.9,98.13h0.14c23.47,14.51,58.6,62.44,62.44,67.84l0,0l0,0l-86.61,192l-0.14-0.28l-47.93-95.43
			c-0.85,0.14-3.84,0.14-14.36,0c-5.83-0.14-12.37-0.14-12.94,0c-7.54,16.07-15.36,33-22.9,49.21
			c-7.68,16.36-15.5,33.28-23.04,49.49L197.26,361.67z M107.8,157.58l89.46,203.52c7.54-16.07,15.36-32.85,22.9-49.21
			c7.54-16.36,15.5-33.28,22.9-49.21c0.14-0.28,1.14-0.28,13.23-0.14c6.12,0.14,13.08,0.14,14.22,0l-0.14-0.14l0.28,0.14
			c0,0,0.28,0,0.14,0.14l0,0l47.79,95.15l86.33-191.57c-4.12-5.69-38.83-53.19-62.29-67.7L274.2,253.87h-31.86l0,0L173.94,96
			C155.16,107.66,121.74,138.67,107.8,157.58z M256.43,190.44L207.36,86.76h0.14c15.79-4.55,32.14-6.83,48.64-6.83
			c16.78,0,33.28,2.42,49.21,6.97h0.14v0.14L256.43,190.44z M207.64,86.9l48.78,102.97l48.64-102.83
			c-15.79-4.55-32.28-6.97-49.07-6.97C239.5,80.07,223.29,82.35,207.64,86.9z"/>
	</g>
</g>
</svg>
