<svg width="32" height="32" viewBox="0 0 32 32" fill="none" xmlns="http://www.w3.org/2000/svg">
<path d="M25.4 6.5467C24.1774 5.31217 22.7214 4.33332 21.1167 3.66718C19.512 3.00104 17.7908 2.66094 16.0533 2.6667C8.77334 2.6667 2.84 8.60003 2.84 15.88C2.84 18.2134 3.45334 20.48 4.6 22.48L2.73334 29.3334L9.73334 27.4934C11.6667 28.5467 13.84 29.1067 16.0533 29.1067C23.3333 29.1067 29.2667 23.1734 29.2667 15.8934C29.2667 12.36 27.8933 9.04003 25.4 6.5467ZM16.0533 26.8667C14.08 26.8667 12.1467 26.3334 10.4533 25.3334L10.0533 25.0934L5.89334 26.1867L7 22.1334L6.73334 21.72C5.63673 19.9694 5.05457 17.9457 5.05334 15.88C5.05334 9.8267 9.98667 4.89336 16.04 4.89336C18.9733 4.89336 21.7333 6.04003 23.8 8.12003C24.8235 9.13852 25.6346 10.3501 26.1862 11.6845C26.7378 13.0189 27.0189 14.4495 27.0133 15.8934C27.04 21.9467 22.1067 26.8667 16.0533 26.8667ZM22.08 18.6534C21.7467 18.4934 20.12 17.6934 19.8267 17.5734C19.52 17.4667 19.3067 17.4134 19.08 17.7334C18.8533 18.0667 18.2267 18.8134 18.04 19.0267C17.8533 19.2534 17.6533 19.28 17.32 19.1067C16.9867 18.9467 15.92 18.5867 14.6667 17.4667C13.68 16.5867 13.0267 15.5067 12.8267 15.1734C12.64 14.84 12.8 14.6667 12.9733 14.4934C13.12 14.3467 13.3067 14.1067 13.4667 13.92C13.6267 13.7334 13.6933 13.5867 13.8 13.3734C13.9067 13.1467 13.8533 12.96 13.7733 12.8C13.6933 12.64 13.0267 11.0134 12.76 10.3467C12.4933 9.7067 12.2133 9.7867 12.0133 9.77336H11.3733C11.1467 9.77336 10.8 9.85336 10.4933 10.1867C10.2 10.52 9.34667 11.32 9.34667 12.9467C9.34667 14.5734 10.5333 16.1467 10.6933 16.36C10.8533 16.5867 13.0267 19.92 16.3333 21.3467C17.12 21.6934 17.7333 21.8934 18.2133 22.04C19 22.2934 19.72 22.2534 20.2933 22.1734C20.9333 22.08 22.2533 21.3734 22.52 20.6C22.8 19.8267 22.8 19.1734 22.7067 19.0267C22.6133 18.88 22.4133 18.8134 22.08 18.6534Z" fill="white"/>
</svg>
