<?xml version="1.0" encoding="UTF-8" standalone="no"?>
<svg
   width="1000"
   height="245.798"
   viewBox="0 0 1000 245.79802"
   fill="none"
   class="logo"
   data-v-2ae84d9e=""
   version="1.1"
   id="svg217"
   sodipodi:docname="dark.svg"
   inkscape:version="1.2.2 (732a01da63, 2022-12-09)"
   xmlns:inkscape="http://www.inkscape.org/namespaces/inkscape"
   xmlns:sodipodi="http://sodipodi.sourceforge.net/DTD/sodipodi-0.dtd"
   xmlns="http://www.w3.org/2000/svg"
   xmlns:svg="http://www.w3.org/2000/svg">
  <sodipodi:namedview
     id="namedview219"
     pagecolor="#ffffff"
     bordercolor="#000000"
     borderopacity="0.25"
     inkscape:showpageshadow="2"
     inkscape:pageopacity="0.0"
     inkscape:pagecheckerboard="0"
     inkscape:deskcolor="#d1d1d1"
     showgrid="false"
     inkscape:zoom="2.6864035"
     inkscape:cx="1012.5061"
     inkscape:cy="157.45959"
     inkscape:window-width="1920"
     inkscape:window-height="1017"
     inkscape:window-x="-8"
     inkscape:window-y="-8"
     inkscape:window-maximized="1"
     inkscape:current-layer="svg217" />
  <g
     clip-path="url(#clip0_1801_8946)"
     data-v-2ae84d9e=""
     id="g210"
     transform="matrix(8.7785098,0,0,8.7785098,-0.75011664,0)">
    <path
       d="M 25.7201,25.7559 H 18.7288 V 17.0737 L 11.7376,10.0473 V 2.31749 h 13.9825 z m -23.30423,0 V 2.31749 h 6.99127 v 8.69981 l 6.99126,7.0265 v 7.7121 z M 28.0505,-0.0239258 H 0.0854492 V 28.0995 H 28.0505 Z"
       fill="#000000"
       data-v-2ae84d9e=""
       id="path198" />
    <path
       d="m 49.875,9.47861 -7.2478,7.59969 h 6.8707 v 1.5521 H 38.8148 V 18.604 l 7.2478,-7.5997 H 39.2204 V 9.45215 h 10.6568 v 0.02646 z"
       fill="#000000"
       data-v-2ae84d9e=""
       id="path200" />
    <path
       d="M 95.1922,18.628 88.4947,13.89 v 4.738 H 86.629 V 9.44971 h 1.8657 v 4.41389 l 6.5089,-4.41389 h 2.872 l -6.5353,4.38739 6.7633,4.7909 z"
       fill="#000000"
       data-v-2ae84d9e=""
       id="path202" />
    <path
       d="m 114.037,18.628 -5.073,-3.4284 h 0.941 c 1.784,0 3.354,-1.0252 3.354,-2.7801 v -0.1213 c 0,-1.7814 -1.583,-2.84849 -3.422,-2.84849 h -7.434 V 18.628 h 1.865 v -4.7909 l 7.014,4.7909 z m -9.769,-7.624 h 5.61 c 0.698,0 1.342,0.2844 1.531,0.8511 0.013,0.0948 0.026,0.3373 0.026,0.582 0,0.2425 -0.013,0.485 -0.026,0.5798 -0.189,0.5005 -0.833,0.8092 -1.531,0.8092 h -5.61 z"
       fill="#000000"
       data-v-2ae84d9e=""
       id="path204" />
    <path
       d="m 65.0392,16.9967 v 1.6337 H 55.5509 V 9.45215 h 9.4883 v 1.63365 h -7.6753 v 1.9711 h 7.2741 v 1.6337 h -7.2741 v 2.3083 h 7.6753 z"
       fill="#000000"
       data-v-2ae84d9e=""
       id="path206" />
    <path
       d="m 80.5805,16.9967 v 1.6337 H 71.0922 V 9.45215 h 9.4883 v 1.63365 h -7.6753 v 1.9711 h 7.2741 v 1.6337 h -7.2741 v 2.3083 h 7.6753 z"
       fill="#000000"
       data-v-2ae84d9e=""
       id="path208" />
  </g>
  <defs
     data-v-2ae84d9e=""
     id="defs215">
    <clipPath
       id="clip0_1801_8946"
       data-v-2ae84d9e="">
      <rect
         width="114"
         height="28"
         fill="#ffffff"
         data-v-2ae84d9e=""
         id="rect212"
         x="0"
         y="0" />
    </clipPath>
  </defs>
</svg>
