<?xml version="1.0" encoding="UTF-8"?>
<svg version="1.1" xmlns="http://www.w3.org/2000/svg" width="48" height="48">
<path d="M0 0 C1.29997925 0.00303635 1.29997925 0.00303635 2.6262207 0.00613403 C3.51027588 0.00517731 4.39433105 0.00422058 5.30517578 0.00323486 C7.178142 0.00255302 9.05111056 0.0044076 10.92407227 0.00857544 C13.80140458 0.01392364 16.67858078 0.0086306 19.5559082 0.00222778 C21.37101272 0.00288856 23.18611713 0.00416972 25.0012207 0.00613403 C25.86787354 0.0041098 26.73452637 0.00208557 27.62744141 0 C33.69877061 0.02399644 33.69877061 0.02399644 34.8137207 1.13894653 C34.91365602 3.19949964 34.94452976 5.26347243 34.9465332 7.32644653 C34.9484668 9.20976685 34.9484668 9.20976685 34.95043945 11.13113403 C34.94834473 11.78823364 34.94625 12.44533325 34.9440918 13.12234497 C34.93874304 15.13055988 34.94403761 17.13855112 34.95043945 19.14675903 C34.94915039 20.40230591 34.94786133 21.65785278 34.9465332 22.95144653 C34.94540527 24.11289185 34.94427734 25.27433716 34.94311523 26.47097778 C34.8137207 29.13894653 34.8137207 29.13894653 33.8137207 30.13894653 C30.868365 30.24005006 27.94694511 30.27863933 25.0012207 30.27175903 C23.67513794 30.27319412 23.67513794 30.27319412 22.32226562 30.2746582 C20.44929941 30.27534005 18.57633084 30.27348546 16.70336914 30.26931763 C13.82603683 30.26396943 10.94886062 30.26926247 8.0715332 30.27566528 C6.25642869 30.2750045 4.44132427 30.27372334 2.6262207 30.27175903 C1.75956787 30.27378326 0.89291504 30.2758075 0 30.27789307 C-6.0713292 30.25389663 -6.0713292 30.25389663 -7.1862793 29.13894653 C-7.28621461 27.07839343 -7.31708835 25.01442063 -7.3190918 22.95144653 C-7.32038086 21.69589966 -7.32166992 20.44035278 -7.32299805 19.14675903 C-7.32090332 18.48965942 -7.31880859 17.83255981 -7.31665039 17.1555481 C-7.31130163 15.14733319 -7.31659621 13.13934194 -7.32299805 11.13113403 C-7.32170898 9.87558716 -7.32041992 8.62004028 -7.3190918 7.32644653 C-7.3173999 5.58427856 -7.3173999 5.58427856 -7.31567383 3.80691528 C-7.07233803 -1.21039336 -4.38568253 0.01733406 0 0 Z " fill="#1976D2" transform="translate(10.186279296875,8.861053466796875)"/>
<path d="M0 0 C0.99 0 1.98 0 3 0 C3.33 0.66 3.66 1.32 4 2 C4.33 1.34 4.66 0.68 5 0 C6.32 0.33 7.64 0.66 9 1 C9 1.66 9 2.32 9 3 C9.6496875 2.2575 9.6496875 2.2575 10.3125 1.5 C12 0 12 0 15 0 C15 2.31 15 4.62 15 7 C13 7 11 7 9 7 C8.67 6.34 8.34 5.68 8 5 C7.67 5.66 7.34 6.32 7 7 C3.7 7 0.4 7 -3 7 C-2.01 4.69 -1.02 2.38 0 0 Z " fill="#E5F0FA" transform="translate(10,20)"/>
<path d="M0 0 C10 0 10 0 13 1 C12.01 2.485 12.01 2.485 11 4 C11.99 5.485 11.99 5.485 13 7 C12.195625 6.814375 11.39125 6.62875 10.5625 6.4375 C9.716875 6.293125 8.87125 6.14875 8 6 C7.67 6.33 7.34 6.66 7 7 C4.66702567 7.04092937 2.33294775 7.04241723 0 7 C0 4.69 0 2.38 0 0 Z " fill="#F6FAFD" transform="translate(28,20)"/>
<path d="M0 0 C0.99 0 1.98 0 3 0 C3.33 0.66 3.66 1.32 4 2 C4.66 1.34 5.32 0.68 6 0 C6 2.31 6 4.62 6 7 C3.03 7 0.06 7 -3 7 C-2.01 4.69 -1.02 2.38 0 0 Z " fill="#C5DCF3" transform="translate(10,20)"/>
<path d="M0 0 C2.475 0.495 2.475 0.495 5 1 C4.67 2.32 4.34 3.64 4 5 C2.68 5 1.36 5 0 5 C0 3.35 0 1.7 0 0 Z " fill="#62A1E0" transform="translate(30,21)"/>
<path d="M0 0 C0.99 0.33 1.98 0.66 3 1 C2.01 2.485 2.01 2.485 1 4 C1.99 5.485 1.99 5.485 3 7 C1.68 6.67 0.36 6.34 -1 6 C-1 5.34 -1 4.68 -1 4 C-1.66 3.67 -2.32 3.34 -3 3 C-2.34 3 -1.68 3 -1 3 C-0.67 2.01 -0.34 1.02 0 0 Z " fill="#CDE1F5" transform="translate(38,20)"/>
</svg>
