<?xml version="1.0" encoding="UTF-8"?>
<svg version="1.1" xmlns="http://www.w3.org/2000/svg" width="100" height="100">
<path d="M0 0 C0.93585937 0.02255859 1.87171875 0.04511719 2.8359375 0.06835938 C5.14225674 0.12719405 7.44530838 0.20932854 9.75 0.3125 C10.41 1.6325 11.07 2.9525 11.75 4.3125 C10.76 5.7975 10.76 5.7975 9.75 7.3125 C9.90827178 10.92117549 9.90827178 10.92117549 10.75 14.3125 C11.41 14.6425 12.07 14.9725 12.75 15.3125 C12.24317543 19.74721497 10.96568929 22.20451322 7.75 25.3125 C4.85546142 25.85731851 2.69220263 26.06037663 -0.1875 26 C-0.89068359 26.02771484 -1.59386719 26.05542969 -2.31835938 26.08398438 C-5.20474611 26.07045866 -7.53992113 25.88630332 -9.83251953 24.03369141 C-13.44167194 19.84614087 -14.42227332 16.32515663 -14.5625 10.9375 C-14.59988281 10.00164063 -14.63726562 9.06578125 -14.67578125 8.1015625 C-13.32834314 -0.72477523 -7.40120681 -0.33688967 0 0 Z " fill="#000000" transform="translate(14.25,38.6875)"/>
<path d="M0 0 C3.8053125 -0.12375 3.8053125 -0.12375 7.6875 -0.25 C8.87218872 -0.30462402 8.87218872 -0.30462402 10.08081055 -0.36035156 C13.90260839 -0.42027101 15.63709783 -0.23202728 18.95703125 1.890625 C22.10123992 5.13703548 22.33404929 7.44207811 22.29296875 11.9609375 C21.83745033 15.13134567 20.24684343 16.8192402 18 19 C15.35541621 20.32229189 13.32238699 20.09677194 10.375 20.0625 C9.37210938 20.05347656 8.36921875 20.04445313 7.3359375 20.03515625 C6.56507812 20.02355469 5.79421875 20.01195313 5 20 C5 23.3 5 26.6 5 30 C3.35 30 1.7 30 0 30 C0 20.1 0 10.2 0 0 Z M5 4 C5 7.96 5 11.92 5 16 C6.44375 15.87625 7.8875 15.7525 9.375 15.625 C10.18710937 15.55539063 10.99921875 15.48578125 11.8359375 15.4140625 C14.20334191 15.17107412 14.20334191 15.17107412 16 13 C16.33333333 10 16.33333333 10 16 7 C13.60236815 4.60236815 12.66726502 4.65719414 9.375 4.375 C7.93125 4.25125 6.4875 4.1275 5 4 Z " fill="#000000" transform="translate(36,34)"/>
<path d="M0 0 C0.94746094 -0.0309375 1.89492187 -0.061875 2.87109375 -0.09375 C5.5625 0.5 5.5625 0.5 7.89453125 2.48046875 C10.1455787 6.55554997 10.0115192 9.74654035 9.8125 14.3125 C9.79445313 15.10076172 9.77640625 15.88902344 9.7578125 16.70117188 C9.71094048 18.63464261 9.6392041 20.56748285 9.5625 22.5 C6.79063012 22.60787818 4.02294463 22.68723327 1.25 22.75 C0.46431641 22.78351563 -0.32136719 22.81703125 -1.13085938 22.8515625 C-6.92248874 22.95014343 -6.92248874 22.95014343 -9.484375 20.7109375 C-10.94413004 17.32478441 -10.40725276 14.99110995 -9.4375 11.5 C-6.5211451 9.50834299 -4.16357343 9.27276255 -0.6875 9.375 C0.11171875 9.39304687 0.9109375 9.41109375 1.734375 9.4296875 C2.33765625 9.45289063 2.9409375 9.47609375 3.5625 9.5 C3.5625 8.18 3.5625 6.86 3.5625 5.5 C1.2525 5.5 -1.0575 5.5 -3.4375 5.5 C-3.4375 6.16 -3.4375 6.82 -3.4375 7.5 C-5.4175 7.5 -7.3975 7.5 -9.4375 7.5 C-8.43068777 1.66048906 -5.79303812 0.06288237 0 0 Z M-3.4375 13.5 C-3.7675 14.82 -4.0975 16.14 -4.4375 17.5 C-2.08382287 18.1878236 -2.08382287 18.1878236 0.5625 18.5 C1.5525 17.84 2.5425 17.18 3.5625 16.5 C3.5625 15.51 3.5625 14.52 3.5625 13.5 C1.2525 13.5 -1.0575 13.5 -3.4375 13.5 Z " fill="#000000" transform="translate(68.4375,41.5)"/>
<path d="M0 0 C1.98 0 3.96 0 6 0 C7.32 4.29 8.64 8.58 10 13 C11.90389849 10.14415227 12.69462177 8.0688238 13.625 4.8125 C13.88539062 3.91144531 14.14578125 3.01039062 14.4140625 2.08203125 C14.60742188 1.39496094 14.80078125 0.70789062 15 0 C16.98 0 18.96 0 21 0 C19.71528055 6.40442234 17.95742112 12.30379869 15.5625 18.375 C15.26279297 19.16777344 14.96308594 19.96054687 14.65429688 20.77734375 C14.35716797 21.53917969 14.06003906 22.30101563 13.75390625 23.0859375 C13.48908447 23.7670459 13.2242627 24.4481543 12.95141602 25.14990234 C11.86944501 27.25387367 10.86571964 28.54148442 9 30 C5.3125 30.1875 5.3125 30.1875 2 30 C2 28.68 2 27.36 2 26 C3.32 25.34 4.64 24.68 6 24 C5.43067938 18.89574616 4.27415166 14.58494625 2.4375 9.75 C0 3.31444759 0 3.31444759 0 0 Z " fill="#000000" transform="translate(79,42)"/>
<path d="M0 0 C0.36275695 4.47400242 0.36275695 4.47400242 -1.25 6.8125 C-3 8 -3 8 -7 8 C-6.6875 5.125 -6.6875 5.125 -6 2 C-3 0 -3 0 0 0 Z " fill="#000000" transform="translate(20,30)"/>
</svg>
