<?xml version="1.0" encoding="UTF-8"?>
<svg version="1.1" xmlns="http://www.w3.org/2000/svg" width="50" height="50">
<path d="M0 0 C11.64 5.96 11.64 5.96 15 11 C15.63970318 17.41723293 14.46271963 21.06108435 11.0625 26.4375 C10.68931641 27.06076172 10.31613281 27.68402344 9.93164062 28.32617188 C7.27528331 32.72471669 7.27528331 32.72471669 6 34 C3.66705225 34.04241723 1.33297433 34.04092937 -1 34 C-1.66 34 -2.32 34 -3 34 C-4.68732277 35.98260426 -6.35366057 37.9832342 -8 40 C-10.87255344 41.43627672 -12.79603193 41.28613581 -16 41 C-18.5537999 39.83994977 -20.8052288 38.68393912 -23.1875 37.25 C-23.80302734 36.90195312 -24.41855469 36.55390625 -25.05273438 36.1953125 C-29.23148232 33.75054122 -32.27861921 31.66469229 -33.57421875 26.87890625 C-33.97282035 18.72819078 -30.23852617 12.06133133 -25 6 C-21.63849173 4.78456811 -20.41984745 4.86005085 -17 6 C-16.236875 5.030625 -15.47375 4.06125 -14.6875 3.0625 C-10.76816289 -1.91611741 -5.77681619 -1.63061904 0 0 Z " fill="#2C85EA" transform="translate(34,5)"/>
<path d="M0 0 C2.09765625 0.33984375 2.09765625 0.33984375 4.16015625 1.83984375 C5.69653964 5.93686612 5.91508206 10.18222924 4.36010742 14.28662109 C3.36871453 16.17529513 2.30018296 17.97473742 1.16015625 19.77734375 C0.78697266 20.40060547 0.41378906 21.02386719 0.02929688 21.66601562 C-2.62706044 26.06456044 -2.62706044 26.06456044 -3.90234375 27.33984375 C-6.2352915 27.38226098 -8.56936942 27.38077312 -10.90234375 27.33984375 C-11.56234375 27.33984375 -12.22234375 27.33984375 -12.90234375 27.33984375 C-14.58966652 29.32244801 -16.25600432 31.32307795 -17.90234375 33.33984375 C-20.74318016 34.76026196 -22.75711653 34.65436647 -25.90234375 34.33984375 C-29.31855098 32.03159562 -29.83601041 30.67151045 -30.65234375 26.58984375 C-30.73484375 25.51734375 -30.81734375 24.44484375 -30.90234375 23.33984375 C-27.90234375 22.33984375 -27.90234375 22.33984375 -24.57421875 22.859375 C-20.93167836 22.74601741 -20.93167836 22.74601741 -19.35351562 20.61083984 C-17.82277899 18.13510764 -16.46827708 15.62359398 -15.15234375 13.02734375 C-14.22391764 11.27919156 -13.29176435 9.53301252 -12.35546875 7.7890625 C-11.95489258 7.00877686 -11.55431641 6.22849121 -11.14160156 5.42456055 C-8.12743169 0.35403326 -5.70359425 -0.23185342 0 0 Z " fill="#F7C411" transform="translate(43.90234375,11.66015625)"/>
<path d="M0 0 C2.47023343 1.46319225 4.8737769 2.92863374 7.1875 4.62890625 C7.1875 4.95890625 7.1875 5.28890625 7.1875 5.62890625 C5.640625 5.59796875 5.640625 5.59796875 4.0625 5.56640625 C1.51467644 5.94934566 0.45196132 6.34812855 -1.33203125 8.2421875 C-3.66681923 11.76044927 -5.69440272 15.41279791 -7.71875 19.1171875 C-8.05527588 19.70854492 -8.39180176 20.29990234 -8.73852539 20.90917969 C-9.71314792 22.62647258 -10.65226943 24.36376552 -11.58984375 26.1015625 C-13.8125 28.62890625 -13.8125 28.62890625 -17.44140625 29.125 C-20.8125 28.62890625 -20.8125 28.62890625 -22.8125 26.62890625 C-22.05453125 25.41654297 -22.05453125 25.41654297 -21.28125 24.1796875 C-20.6315625 23.11105469 -19.981875 22.04242187 -19.3125 20.94140625 C-18.6628125 19.88566406 -18.013125 18.82992188 -17.34375 17.7421875 C-15.81684337 14.63773703 -15.28759843 13.01690729 -15.8125 9.62890625 C-17.7129467 7.78574954 -17.7129467 7.78574954 -19.8125 6.62890625 C-18.63441948 3.27590785 -17.61843388 0.87365335 -14.8125 -1.37109375 C-9.58854618 -3.11241169 -4.93448244 -2.40556019 0 0 Z " fill="#4AB464" transform="translate(36.8125,6.37109375)"/>
<path d="M0 0 C2.09765625 0.33984375 2.09765625 0.33984375 4.16015625 1.83984375 C5.69653964 5.93686612 5.91508206 10.18222924 4.36010742 14.28662109 C3.36871453 16.17529513 2.30018296 17.97473742 1.16015625 19.77734375 C0.78697266 20.40060547 0.41378906 21.02386719 0.02929688 21.66601562 C-2.62706044 26.06456044 -2.62706044 26.06456044 -3.90234375 27.33984375 C-7.33984375 27.58984375 -7.33984375 27.58984375 -10.90234375 27.33984375 C-11.56234375 26.34984375 -12.22234375 25.35984375 -12.90234375 24.33984375 C-12.144375 23.12748047 -12.144375 23.12748047 -11.37109375 21.890625 C-10.72140625 20.82199219 -10.07171875 19.75335937 -9.40234375 18.65234375 C-8.75265625 17.59660156 -8.10296875 16.54085938 -7.43359375 15.453125 C-5.90100953 12.33713106 -5.38316851 10.73808168 -5.90234375 7.33984375 C-7.79818484 5.02607228 -7.79818484 5.02607228 -9.90234375 3.33984375 C-6.9094423 -0.27657883 -4.48713657 -0.18240393 0 0 Z " fill="#EC5847" transform="translate(43.90234375,11.66015625)"/>
</svg>
