<svg width="62" height="40" viewBox="0 0 62 40" fill="none" xmlns="http://www.w3.org/2000/svg">
<g clip-path="url(#clip0_4893_113876)">
<path d="M0 16.5333C0 9.64494 0 6.20074 1.75421 3.78627C2.32075 3.0065 3.0065 2.32075 3.78627 1.75421C6.20074 0 9.64494 0 16.5333 0H45.4667C52.3551 0 55.7993 0 58.2137 1.75421C58.9935 2.32075 59.6792 3.0065 60.2458 3.78627C62 6.20074 62 9.64494 62 16.5333V23.4667C62 30.3551 62 33.7993 60.2458 36.2137C59.6792 36.9935 58.9935 37.6793 58.2137 38.2458C55.7993 40 52.3551 40 45.4667 40H16.5333C9.64494 40 6.20074 40 3.78627 38.2458C3.0065 37.6793 2.32075 36.9935 1.75421 36.2137C0 33.7993 0 30.3551 0 23.4667V16.5333Z" fill="white"/>
<path d="M33.8772 13.825H26.6113V26.1729H33.8772V13.825Z" fill="#FF5F00"/>
<path d="M27.3589 20.001C27.358 18.812 27.617 17.6384 28.1163 16.5689C28.6157 15.4995 29.3424 14.5622 30.2413 13.8281C29.128 12.9177 27.7909 12.3516 26.383 12.1945C24.9751 12.0373 23.5531 12.2955 22.2794 12.9395C21.0059 13.5834 19.9321 14.5873 19.1809 15.8362C18.4296 17.0851 18.0312 18.5288 18.0312 20.0021C18.0312 21.4754 18.4296 22.919 19.1809 24.168C19.9321 25.4169 21.0059 26.4207 22.2794 27.0647C23.5531 27.7087 24.9751 27.9668 26.383 27.8096C27.7909 27.6525 29.128 27.0864 30.2413 26.176C29.3421 25.4417 28.6153 24.5041 28.1159 23.4343C27.6165 22.3644 27.3576 21.1903 27.3589 20.001Z" fill="#EB001B"/>
<path d="M41.7285 24.8678V24.6142H41.8332V24.5618H41.584V24.6142H41.6824V24.8678H41.7285ZM42.2122 24.8678V24.5618H42.1368L42.0489 24.7803L41.9609 24.5618H41.8855V24.8678H41.9399V24.636L42.0217 24.835H42.0782L42.1599 24.636V24.8678H42.2122Z" fill="#F79E1B"/>
<path d="M42.4534 20.0002C42.4533 21.4736 42.0548 22.9173 41.3035 24.1663C40.5521 25.4153 39.4782 26.419 38.2044 27.0629C36.9307 27.7069 35.5085 27.9648 34.1005 27.8075C32.6925 27.6501 31.3554 27.0837 30.2422 26.173C31.1407 25.4383 31.8671 24.5008 32.3667 23.4312C32.8662 22.3618 33.1257 21.1882 33.1257 19.999C33.1257 18.81 32.8662 17.6364 32.3667 16.5669C31.8671 15.4974 31.1407 14.5599 30.2422 13.8251C31.3554 12.9144 32.6925 12.348 34.1005 12.1907C35.5085 12.0333 36.9307 12.2913 38.2044 12.9352C39.4782 13.5791 40.5521 14.5829 41.3035 15.8318C42.0548 17.0808 42.4533 18.5245 42.4534 19.998V20.0002Z" fill="#F79E1B"/>
</g>
<path d="M16.5332 0.574219H45.4668C48.9237 0.574219 51.4703 0.574896 53.4561 0.790039C55.431 1.00401 56.7829 1.42467 57.876 2.21875C58.607 2.74988 59.2501 3.39299 59.7812 4.12402C60.5753 5.21706 60.996 6.56898 61.21 8.54395C61.4251 10.5297 61.4258 13.0763 61.4258 16.5332V23.4668C61.4258 26.9237 61.4251 29.4703 61.21 31.4561C60.996 33.431 60.5753 34.7829 59.7812 35.876C59.2501 36.607 58.607 37.2501 57.876 37.7812C56.7829 38.5753 55.431 38.996 53.4561 39.21C51.4703 39.4251 48.9237 39.4258 45.4668 39.4258H16.5332C13.0763 39.4258 10.5297 39.4251 8.54395 39.21C6.56898 38.996 5.21706 38.5753 4.12402 37.7812C3.39299 37.2501 2.74988 36.607 2.21875 35.876C1.42467 34.7829 1.00401 33.431 0.790039 31.4561C0.574896 29.4703 0.574219 26.9237 0.574219 23.4668V16.5332C0.574219 13.0763 0.574896 10.5297 0.790039 8.54395C1.00401 6.56898 1.42467 5.21706 2.21875 4.12402C2.74988 3.39299 3.39299 2.74988 4.12402 2.21875C5.21706 1.42467 6.56898 1.00401 8.54395 0.790039C10.5297 0.574896 13.0763 0.574219 16.5332 0.574219Z" stroke="#EBEBEB" stroke-width="1.14815"/>
<defs>
<clipPath id="clip0_4893_113876">
<path d="M0 16.5333C0 9.64494 0 6.20074 1.75421 3.78627C2.32075 3.0065 3.0065 2.32075 3.78627 1.75421C6.20074 0 9.64494 0 16.5333 0H45.4667C52.3551 0 55.7993 0 58.2137 1.75421C58.9935 2.32075 59.6792 3.0065 60.2458 3.78627C62 6.20074 62 9.64494 62 16.5333V23.4667C62 30.3551 62 33.7993 60.2458 36.2137C59.6792 36.9935 58.9935 37.6793 58.2137 38.2458C55.7993 40 52.3551 40 45.4667 40H16.5333C9.64494 40 6.20074 40 3.78627 38.2458C3.0065 37.6793 2.32075 36.9935 1.75421 36.2137C0 33.7993 0 30.3551 0 23.4667V16.5333Z" fill="white"/>
</clipPath>
</defs>
</svg>
