<svg width="62" height="40" viewBox="0 0 62 40" fill="none" xmlns="http://www.w3.org/2000/svg">
<path d="M0 14.4C0 8.40043 0 5.40064 1.52786 3.29772C2.0213 2.61856 2.61856 2.0213 3.29772 1.52786C5.40064 0 8.40043 0 14.4 0H47.6C53.5996 0 56.5994 0 58.7023 1.52786C59.3814 2.0213 59.9787 2.61856 60.4721 3.29772C62 5.40064 62 8.40043 62 14.4V25.6C62 31.5996 62 34.5994 60.4721 36.7023C59.9787 37.3814 59.3814 37.9787 58.7023 38.4721C56.5994 40 53.5996 40 47.6 40H14.4C8.40043 40 5.40064 40 3.29772 38.4721C2.61856 37.9787 2.0213 37.3814 1.52786 36.7023C0 34.5994 0 31.5996 0 25.6V14.4Z" fill="#1334CB"/>
<path d="M26.2249 13.6992L21.6742 24.9233H18.7045L16.4398 15.9795C16.3116 15.426 16.1834 15.2268 15.7775 14.9833C15.0938 14.6069 13.9828 14.2527 13 14.0313L13.0641 13.6992H17.8499C18.4694 13.6992 19.0036 14.1199 19.1531 14.8504L20.3496 21.3369L23.2765 13.6992H26.2249ZM37.8902 21.2705C37.9116 18.304 33.9377 18.1269 33.9591 16.8207C33.9591 16.4222 34.3437 15.9795 35.1555 15.8909C35.5614 15.8466 36.6724 15.8024 37.9329 16.4001L38.4243 13.987C37.7406 13.7435 36.8647 13.5 35.7964 13.5C33.019 13.5 31.0534 15.0275 31.032 17.2192C31.0107 18.8353 32.4422 19.743 33.489 20.2743C34.5787 20.8277 34.9632 21.1819 34.9419 21.669C34.9419 22.4217 34.0659 22.7537 33.254 22.7759C31.8439 22.798 31.0107 22.3774 30.3698 22.0674L29.857 24.5248C30.5193 24.8348 31.7371 25.1004 32.9977 25.1226C35.946 25.1004 37.8902 23.5949 37.8902 21.2705ZM45.2612 24.9233H47.8677L45.5817 13.6992H43.1887C42.6546 13.6992 42.1846 14.0313 41.9923 14.5184L37.7621 24.9233H40.7104L41.2872 23.2408H44.8979L45.2612 24.9233ZM42.0991 20.9605L43.5733 16.7543L44.428 20.9605H42.0991ZM30.2629 13.6992L27.9341 24.9233H25.114L27.4427 13.6992H30.2629Z" fill="white"/>
</svg>
